<?xml version="1.0" encoding="UTF-8" standalone="no"?>
<!-- Created with Inkscape (http://www.inkscape.org/) -->

<svg
   width="84.818138mm"
   height="84.806984mm"
   viewBox="0 0 84.818138 84.806984"
   version="1.1"
   id="svg7196"
   xmlns="http://www.w3.org/2000/svg"
   xmlns:svg="http://www.w3.org/2000/svg">
  <defs
     id="defs7193" />
  <g
     id="layer1"
     transform="translate(185.38012,74.568888)">
    <path
       id="path7279"
       style="fill:#fffefe;stroke:#0f180f;stroke-width:0;stroke-miterlimit:4;stroke-dasharray:none"
       d="m -146.57812,-74.4375 c -2.94538,0.298486 -5.87136,0.814194 -8.70258,1.690786 -3.03531,0.915881 -5.96412,2.182424 -8.71779,3.754783 -2.75442,1.568879 -5.33028,3.451606 -7.66385,5.598122 -2.36518,2.160519 -4.4677,4.604426 -6.28584,7.241724 -1.79142,2.61579 -3.2883,5.431954 -4.45762,8.379688 -1.16814,2.947791 -1.99468,6.028746 -2.48323,9.161927 -0.48226,3.133924 -0.60722,6.321293 -0.38417,9.484889 0.23084,3.162155 0.8165,6.297075 1.73833,9.331434 0.92707,3.031215 2.19535,5.956973 3.76836,8.709722 1.57964,2.7486034 3.46446,5.3210296 5.61085,7.6553963 2.15225,2.3284171 4.56146,4.41865158 7.17489,6.2158643 2.61441,1.793413 5.43122,3.2883561 8.37746,4.4607706 2.94668,1.1694159 6.02582,2.0014606 9.15857,2.4906547 5.38801,0.8248901 10.93688,0.6384261 16.24271,-0.6312001 10.58777,-2.4677062 20.09332,-9.20183569 25.92792,-18.3749245 5.41574,-8.3965143 7.727347,-18.7549973 6.29797,-28.6519983 -0.34603,-2.680481 -0.98572,-5.324647 -1.85411,-7.882805 -1.01614,-3.003051 -2.37248,-5.891367 -4.037,-8.588608 -1.65948,-2.701582 -3.62684,-5.214282 -5.84778,-7.475388 -2.19459,-2.242576 -4.64376,-4.234098 -7.27882,-5.935366 -2.66431,-1.719241 -5.52163,-3.136342 -8.50039,-4.22003 -2.98206,-1.079392 -6.08328,-1.831338 -9.22964,-2.224116 -2.93898,-0.378061 -5.90095,-0.399208 -8.85424,-0.191325 z" />
    <path
       id="path932"
       style="fill:#004680;stroke-width:0.671473"
       class="st2"
       d="m -173.30078,-10.386719 c -1.27049,0.05476 -1.61929,2.0058889 -0.45508,2.5058596 0.97835,0.5838677 2.23153,-0.4727442 1.89453,-1.5371094 -0.15598,-0.6269532 -0.80356,-1.0491532 -1.43945,-0.9687502 z" />
    <path
       id="polygon934"
       style="fill:#004680;stroke-width:0.671474"
       class="st2"
       d="m -168.31139,-7.4707753 c -0.39269,0.4951396 -0.78526,0.9903735 -1.17816,1.4853512 0.40078,0.2435145 0.80158,0.4870155 1.20298,0.7295052 0.26465,-0.5121497 0.56335,-0.2311969 0.86333,0.079542 0.59653,0.3260299 0.27203,0.4448173 -0.23353,0.5228694 -1.28231,0.3434512 -2.56456,0.6870912 -3.84689,1.0304143 -0.0858,0.3122897 -0.75989,0.7051597 -0.30239,0.9390264 1.32203,1.1232179 2.643,2.24770339 3.96619,3.36953923 0.49994,-0.58719488 0.99939,-1.17481451 1.49948,-1.76187453 -0.39307,-0.315155 -0.78591,-0.6305932 -1.17816,-0.9467797 -0.24957,0.3299807 -0.48035,0.8378693 -0.82521,0.299318 -0.17779,-0.2334149 -1.05307,-0.621006 -0.37567,-0.6653954 1.38994,-0.3677831 2.7798,-0.7358695 4.16979,-1.1034706 0.14886,-0.2725388 0.88677,-0.5756728 0.43141,-0.8214795 -0.96159,-0.816686 -1.92197,-1.6348215 -2.88308,-2.4520806 0.3408,-0.3464244 -0.39055,-0.5228424 -0.56949,-0.7874391 -0.39375,-0.3670415 -0.42441,-0.3938679 -0.7406,0.082954 z" />
    <path
       id="path936"
       style="fill:#004680;stroke-width:0.671473"
       class="st2"
       d="m -163.22461,-2.8574219 c -0.33785,0.5255577 -0.602,1.0301875 0.19478,1.1998994 0.077,0.4232608 -0.53633,1.04822068 -0.71586,1.54642935 -0.57335,0.84893356 -1.01315,1.99020355 -0.41961,2.94904035 0.7945,1.5108904 3.15899,2.1260873 4.35766,0.7385341 0.63202,-0.768822 0.97508,-1.729842 1.48537,-2.57843442 0.59258,0.49779012 0.97962,0.40776602 1.12572,-0.38523679 0.54969,-0.64917252 -0.12207,-0.88212382 -0.66944,-1.15668667 -0.63321,-0.35256986 -1.26629,-0.70536322 -1.89963,-1.05768592 -0.0871,0.4575399 -0.8514,1.12953799 -0.49864,1.45194137 0.85992,0.17237869 0.26328,0.76706247 0.009,1.26173203 -0.38006,0.63611 -0.76804,1.8756298 -1.74097,1.5042354 -0.83413,-0.3103351 -0.45006,-1.3604017 -0.0562,-1.88594892 0.34395,-0.35588357 0.48292,-1.41978051 0.95782,-1.3233693 0.59294,0.61177908 0.78939,-0.0480264 1.02598,-0.57890308 0.59698,-0.621133 -0.4702,-0.7175405 -0.83417,-1.0363535 -0.69199,-0.3804629 -1.38432,-0.7603245 -2.07599,-1.1413809 -0.082,0.1640625 -0.16406,0.328125 -0.24609,0.4921875 z" />
    <path
       id="path938"
       style="fill:#004680;stroke-width:0.671473"
       class="st2"
       d="m -154.35742,1.3925781 c -0.28116,0.6111773 -0.4407,1.1544536 0.432,1.1337224 0.12202,0.449236 -0.26777,1.2027561 -0.34421,1.769987 -0.26089,0.3987373 -0.0498,1.5856598 -0.66006,1.4009781 -0.78029,-0.4677506 -0.60515,0.5266457 -0.75201,1.0272923 -0.0863,0.6082182 1.05467,0.4050266 1.50139,0.6608056 1.19414,0.194646 2.60612,0.9765887 3.71547,0.1283084 0.73755,-0.5993889 0.89707,-1.8224333 0.27343,-2.5585938 1.1247,-0.7203894 0.86213,-2.618961 -0.39471,-3.0522823 -1.17655,-0.412651 -2.41699,-0.6373841 -3.617,-0.9809208 -0.0514,0.156901 -0.10287,0.3138021 -0.1543,0.4707031 z m 2.60742,1.7460938 c 0.61241,0.1014831 0.0955,1.0711404 -0.39062,0.6914062 0.13548,-0.1892377 0.0415,-0.9028036 0.39062,-0.6914062 z m -0.45508,2.2304687 c 0.6621,-0.036843 0.61489,1.0508934 -0.016,0.9538437 -0.74641,0.2434939 -0.38585,-1.0597569 -0.0478,-0.9697897 z" />
    <path
       id="polygon940"
       style="fill:#004680;stroke-width:0.671474"
       class="st2"
       d="m -143.54776,2.6251135 c -1.15944,-0.045158 -2.31886,-0.090983 -3.47832,-0.1356289 0,0.4819455 0,0.9638976 0,1.4458431 0.35733,0.068452 0.97893,-0.1023706 0.77496,0.4701604 -0.0302,0.9643157 -0.0604,1.9286246 -0.0905,2.8929402 -0.33133,0.075497 -1.04006,-0.2294776 -0.88428,0.3371002 0.081,0.3364193 -0.16807,0.9947019 0.13368,1.1158692 1.64388,0.055284 3.28778,0.1097733 4.93164,0.1653746 0,-0.7194056 0,-1.4388179 0,-2.1582302 -0.58497,0.1825735 -0.36138,-0.4499816 -0.40099,-0.8172051 0,-0.407507 0,-0.8150072 0,-1.2225142 0.61165,0.1927134 0.46203,-0.3820492 0.46761,-0.8003501 0,-0.4649152 0,-0.929837 0,-1.3947522 -0.4846,-0.08118 -0.96919,-0.1623138 -1.45377,-0.2436088 0,0.1150051 0,0.2300034 0,0.3450018 z m 0,1.4866659 c 0.19404,0.5612449 -0.71712,0.0083 -0.46891,0.6241613 -0.21535,0.5454417 -0.44978,-0.2329497 -0.30459,-0.581781 0.16526,-0.098244 0.54003,-0.014435 0.7735,-0.04238 z m -0.53553,2.3320459 c -0.24733,0.5741289 0.13297,0.5664632 0.46892,0.634962 0.17632,0.4433879 -0.79506,0.2992506 -0.79743,0.1033145 0.0904,-0.2840474 -0.19591,-0.9285898 0.32851,-0.7382765 z" />
    <path
       id="path942"
       style="fill:#004680;stroke-width:0.671473"
       class="st2"
       d="m -136.62109,1.9960938 c -1.17717,0.1583089 -2.34842,0.360552 -3.52344,0.5351562 0.18596,0.4350339 -0.0444,1.4397068 0.41987,1.4921594 0.82142,-0.4109922 0.6698,0.5288586 0.79716,1.0820441 0.10539,0.6725311 0.21078,1.3450623 0.31617,2.0175934 -0.82404,-0.081163 -0.88217,0.3816514 -0.65392,1.0509611 -0.12782,0.852479 0.71194,0.3550946 1.20115,0.3483885 0.77528,-0.1265869 1.5505,-0.2534927 2.32582,-0.3798184 -0.0696,-0.6360494 -0.0141,-0.7554369 0.41797,-0.2558593 0.74908,0.4017617 1.61329,-0.06354 2.40039,-0.1054688 -0.2737,-0.4313529 -0.11332,-1.5727428 -0.72605,-1.4520867 -0.5318,0.3258981 -0.78955,-0.1809436 -1.10903,-0.5141012 -0.70844,-0.377089 -0.0568,-0.6665442 0.11387,-1.1480803 0.47202,-1.1157126 -0.26364,-2.6453697 -1.55809,-2.6669818 -0.14045,0.00115 -0.28174,-0.014727 -0.42187,-0.00391 z m -0.0996,1.578125 c 0.40658,0.2428385 0.1978,1.0543318 -0.34766,0.9414062 0.0444,-0.4097435 -0.39275,-1.1259953 0.34766,-0.9414062 z m 0.32812,3.1992187 c -0.43216,0.1608236 -0.2964,-0.6311428 -0.0155,-0.017026 z" />
    <path
       id="polygon944"
       style="fill:#004680;stroke-width:0.671474"
       class="st2"
       d="m -129.96362,-0.01769832 c -0.96397,0.36029947 -1.92748,0.72187991 -2.89185,1.08108712 0.22466,0.4529818 0.44932,0.9059636 0.67399,1.3589387 0.38246,-0.1495444 0.81997,-0.4225012 0.86232,0.1855602 0.33342,0.8621001 0.66684,1.7242002 1.00027,2.5863003 -0.31346,0.1850815 -0.94753,0.2282169 -0.58564,0.7105466 0.14669,0.2910524 0.17538,0.8334197 0.39213,0.9759861 1.53988,-0.591739 3.07934,-1.18455 4.6188,-1.7773947 -0.2536,-0.6854258 -0.50856,-1.3703326 -0.7628,-2.0555225 -0.47711,0.1617542 -0.95439,0.3230162 -1.43156,0.4845816 0.24704,0.408734 0.37461,0.7682783 -0.22356,0.8235358 -0.43046,0.2452 -0.38704,-0.5921974 -0.59646,-0.8519871 -0.26044,-0.6739308 -0.52089,-1.3478683 -0.78134,-2.0217991 0.23862,-0.1787305 1.07165,-0.1103935 0.73329,-0.52959115 -0.18772,-0.37899504 -0.37653,-0.75743724 -0.56479,-1.13615585 -0.1476,0.0553047 -0.2952,0.11060932 -0.4428,0.16591398 z" />
    <path
       id="polygon946"
       style="fill:#004680;stroke-width:0.671474"
       class="st2"
       d="m -124.49208,-2.8804141 c -0.89866,0.5214131 -1.79697,1.0434465 -2.69593,1.564354 0.29234,0.44333403 0.58589,0.88585898 0.87905,1.32864687 0.31455,-0.17818444 0.70584,-0.71481429 0.85426,-0.10870808 0.47935,0.80568302 0.95871,1.61137281 1.43807,2.41705581 -0.35477,0.206157 -0.85486,0.368727 -0.42545,0.8053055 0.20823,0.2399479 0.28441,0.950245 0.58061,0.8744851 0.98586,-0.6220038 1.97262,-1.2425649 2.95874,-1.864144 -0.24838,-0.417829 -0.49752,-0.835186 -0.74713,-1.25227338 -0.31385,0.11220719 -0.75033,0.74957608 -0.90616,0.18370618 -0.49776,-0.83595466 -0.99551,-1.67190254 -1.49327,-2.5078572 0.23872,-0.2418222 0.98955,-0.3622344 0.56545,-0.7614824 -0.23754,-0.2436965 -0.36136,-0.9282459 -0.67621,-0.8713434 -0.11067,0.064083 -0.22135,0.1281655 -0.33203,0.192255 z" />
    <path
       id="polygon948"
       style="fill:#004680;stroke-width:0.671474"
       class="st2"
       d="m -117.63078,-8.6084885 c -0.69228,0.6421422 -1.38423,1.2846619 -2.07681,1.9264738 0.36614,0.3674055 0.7315,0.7356134 1.09588,1.1047988 0.28988,-0.2282034 0.58676,-0.8779371 0.86551,-0.3020553 0.20501,0.2633157 0.90372,0.7756204 0.17386,0.5674139 -1.05396,-0.1200954 -2.10796,-0.2398469 -3.1619,-0.3601714 -0.53364,0.5058324 -1.06845,1.0104107 -1.60266,1.5156363 0.30645,0.3858719 0.61291,0.7717303 0.91954,1.1574606 0.2888,-0.1429979 0.59711,-0.7670918 0.87342,-0.6029712 0.71069,0.7509717 1.42138,1.5019501 2.13207,2.2529217 -0.18151,0.28487 -0.87909,0.56863418 -0.37443,0.85289057 0.28852,0.17211663 0.56552,0.81078672 0.85952,0.67682983 0.74593,-0.69096107 1.49313,-1.3805265 2.23958,-2.0709213 -0.31302,-0.3967265 -0.6264,-0.7931699 -0.94044,-1.1890738 -0.28661,0.174483 -0.58493,0.9222185 -0.85568,0.3850291 -0.11472,-0.2240368 -0.97153,-0.8268866 -0.39749,-0.6993144 1.14397,0.1260889 2.28778,0.2536612 3.43185,0.378813 0.3021,-0.2277449 0.60336,-0.4566225 0.90518,-0.6847382 -1.10875,-1.189175 -2.22066,-2.3753296 -3.33073,-3.5632505 0.17787,-0.2778043 0.83408,-0.5275282 0.3656,-0.8411258 -0.23585,-0.2965336 -0.47128,-0.5934245 -0.70651,-0.8904637 -0.13845,0.1286037 -0.27691,0.2572142 -0.41536,0.385818 z" />
    <path
       id="path950"
       style="fill:#004680;stroke-width:0.671473"
       class="st2"
       d="m -112.61328,-11.583984 c -1.16662,-0.01154 -1.71315,1.6723384 -0.74796,2.3357448 0.83919,0.7916448 2.28085,-0.073075 2.11515,-1.1619168 -0.0747,-0.654928 -0.69899,-1.217588 -1.36719,-1.173828 z" />
    <path
       id="polygon952"
       style="fill:#004680;stroke-width:0.671474"
       class="st2"
       d="m -176.98826,-21.251062 c -0.23418,0.198161 -1.03722,0.154965 -0.72942,0.583521 0.3048,0.439396 0.22604,0.723666 -0.31246,0.822599 -0.8152,0.362193 -1.63039,0.724387 -2.44559,1.086575 -0.17765,-0.315567 -0.22519,-0.930707 -0.69567,-0.57065 -0.30548,0.148553 -0.85239,0.192315 -1.0052,0.406475 0.50234,1.076004 1.00471,2.151987 1.50626,3.228369 0.4355,-0.177699 0.87144,-0.354293 1.30747,-0.53067 -0.0646,-0.321196 -0.61746,-0.825653 -0.0425,-0.907643 0.47045,-0.417498 0.62673,0.01501 0.78081,0.453467 0.17536,0.390612 0.35073,0.781217 0.52609,1.171828 -0.33764,0.08016 -0.84141,0.58882 -0.91841,-0.0035 -0.0558,-0.588388 -0.52277,-0.228911 -0.87256,-0.13724 -0.3931,0.120999 -0.90909,0.187441 -0.5053,0.668099 0.42138,0.991364 0.84268,1.982763 1.2644,2.973979 0.45155,-0.228129 0.90298,-0.456528 1.35449,-0.684738 -0.11336,-0.344881 -0.57672,-0.821837 0.0383,-0.892689 0.86891,-0.401217 1.73781,-0.802433 2.60672,-1.20365 0.20044,0.229012 0.19171,1.103127 0.58848,0.731487 0.34262,-0.207498 0.68512,-0.415193 1.02725,-0.623507 -0.47283,-1.076125 -0.94238,-2.153706 -1.41458,-3.230108 -0.46187,0.232781 -0.92362,0.465819 -1.38584,0.697906 0.13844,0.338873 0.64543,0.804024 0.0226,0.883371 -0.46651,0.421294 -0.58113,-0.08881 -0.7409,-0.479424 -0.17506,-0.390544 -0.35012,-0.781095 -0.52518,-1.171646 0.32477,-0.03804 0.86078,-0.613361 0.95481,-0.06452 0.0911,0.550458 0.38721,0.516977 0.77432,0.225385 0.26376,-0.220659 1.04262,-0.261104 0.65984,-0.708166 -0.45296,-0.96969 -0.90438,-1.940107 -1.35841,-2.90929 -0.15325,0.06145 -0.30651,0.1229 -0.45977,0.184353 z" />
    <path
       id="path954"
       style="fill:#004680;stroke-width:0.671473"
       class="st2"
       d="m -184.07227,-28.837891 c 0.13739,0.914712 0.27454,1.829459 0.41211,2.744141 0.43478,-0.184187 1.43754,0.04965 1.49091,-0.414134 -0.40736,-0.824729 0.532,-0.666644 1.08686,-0.78838 0.70931,-0.104926 1.8773,-0.466494 2.13708,0.505248 0.26012,0.896812 -0.8462,1.227815 -1.52961,1.252077 -0.46912,-0.07407 -1.46157,0.588354 -1.54852,-0.02356 0.12344,-0.855634 -0.77674,-0.316686 -1.26254,-0.343521 -0.68951,0.0061 -0.0243,1.013175 -0.10595,1.46838 0.11373,0.707726 0.229,1.415207 0.34115,2.123188 0.43208,-0.186156 1.43228,0.04388 1.48298,-0.419974 -0.40743,-0.822096 0.52629,-0.675646 1.08331,-0.801572 1.05823,-0.139008 2.37919,-0.227946 2.91106,-1.328169 0.90744,-1.556434 -0.0462,-4.038985 -1.97941,-4.131639 -0.97652,-0.0185 -1.92745,0.29528 -2.89247,0.413776 0.1264,-0.772488 -0.62136,-0.743998 -1.16858,-0.896395 -0.81794,-0.315401 -0.51101,0.01335 -0.45838,0.640534 z" />
    <path
       id="polygon956"
       style="fill:#004680;stroke-width:0.671474"
       class="st2"
       d="m -183.33623,-40.436805 c -0.0797,0.694392 -0.15945,1.388771 -0.23903,2.083173 0.93579,0.599166 1.87221,1.197346 2.80826,1.796113 -1.06586,0.345809 -2.13151,0.692234 -3.1975,1.037636 -0.10119,0.846679 -0.20234,1.693364 -0.30303,2.5401 0.5113,0.07222 1.02246,0.145418 1.53344,0.219911 0.0713,-0.363057 -0.10553,-1.031506 0.4668,-0.783038 0.93157,0.102557 1.86314,0.205114 2.7947,0.307671 0.0552,0.302367 -0.40764,1.050426 0.12383,0.940194 0.40543,0 0.81086,0 1.2163,0 0.1315,-1.095574 0.26476,-2.190934 0.39446,-3.286728 -0.30798,-0.01458 0.6206,-0.234799 0.81636,-0.333149 -0.39491,-0.253696 -0.78959,-0.507744 -1.1847,-0.76111 0.53515,0.264253 0.56404,-0.157931 0.58171,-0.595884 0.13177,-1.009753 0.26351,-2.01951 0.39531,-3.02926 -0.48285,0 -0.9657,0 -1.44854,0 -0.0636,0.409385 -0.0285,0.953137 -0.58849,0.689807 -0.91495,-0.11713 -1.8299,-0.23426 -2.74485,-0.35139 -0.007,-0.366873 0.26474,-0.951474 -0.33052,-0.856404 -0.32329,-0.0043 -0.81288,-0.23245 -1.03822,-0.106362 -0.0188,0.162907 -0.0375,0.325813 -0.0563,0.48872 z m 4.39395,2.808729 c 0.0559,0.691384 -0.48626,0.03432 -0.79433,-0.0961 0.2194,0.01601 0.53891,0.06678 0.79433,0.0961 z m -0.3161,2.533519 c 0.20147,0.488704 -1.10039,0.147084 -0.30903,0.08386 0.0869,-0.0134 0.26243,-0.120992 0.30903,-0.08386 z" />
    <path
       id="path958"
       style="fill:#004680;stroke-width:0.671473"
       class="st2"
       d="m -179.50391,-48.998047 c -1.38844,0.174573 -1.69436,1.743307 -2.14091,2.81266 -0.2199,0.561166 -0.43953,1.122438 -0.65987,1.683434 0.46182,0.026 1.2412,0.680693 1.49618,0.290512 0.0262,-0.924227 0.76944,-0.333256 1.3147,-0.161068 0.63531,0.245264 1.27061,0.490527 1.90592,0.73579 -0.36962,0.633944 -0.25241,1.024704 0.50908,1.09333 0.67998,0.504543 0.76743,-0.226008 0.95605,-0.747583 0.33568,-1.216698 1.17673,-2.37508 1.00362,-3.679731 -0.22512,-1.168609 -1.76373,-1.73313 -2.74219,-1.123047 -0.27479,-0.634189 -0.96464,-0.99195 -1.64258,-0.904297 z m -0.0117,2 c 0.64703,0.04179 0.38445,1.12325 -0.17882,0.553875 -0.43073,0.04177 -0.11984,-0.696252 0.17882,-0.553875 z m 2.3496,0.615235 c 0.56513,0.03422 0.33934,0.657599 0.19532,0.990234 -0.605,-0.106053 -1.10418,-0.511359 -0.44727,-0.970703 0.0793,-0.03692 0.16785,-0.03237 0.25195,-0.01953 z" />
    <path
       id="path960"
       style="fill:#004680;stroke-width:0.671473"
       class="st2"
       d="m -174.66797,-56.736328 c -1.70786,0.0419 -3.12928,1.69187 -2.87695,3.390625 0.1044,1.849777 2.01975,3.328249 3.83385,2.860716 1.60762,-0.280073 2.80216,-1.941705 2.44869,-3.556506 -0.23826,-1.623862 -1.77275,-2.828628 -3.40559,-2.694835 z m -0.17773,1.794922 c 1.07147,0.02397 2.27479,1.137481 1.87304,2.251953 -0.68294,0.887862 -2.04997,0.283829 -2.61914,-0.451172 -0.51307,-0.51089 -0.54649,-1.630378 0.32422,-1.763672 0.13772,-0.0351 0.28056,-0.04006 0.42188,-0.03711 z" />
    <path
       id="polygon962"
       style="fill:#004680;stroke-width:0.671474"
       class="st2"
       d="m -170.87278,-62.536622 c -0.73101,0.709325 -1.46218,1.418479 -2.19306,2.127945 0.36241,0.365468 0.72522,0.73053 1.08673,1.096892 0.291,-0.228574 0.5874,-0.879527 0.87036,-0.306823 0.64554,0.680349 1.29107,1.360697 1.9366,2.041046 -0.17421,0.292135 -0.94895,0.617592 -0.39212,0.869166 0.31348,0.197602 0.63798,0.625849 0.94424,0.677151 1.15955,-1.139601 2.31839,-2.279934 3.4761,-3.421437 -0.53263,-0.534908 -1.06415,-1.070943 -1.59483,-1.60781 -0.31049,0.390601 -0.62073,0.781409 -0.9313,1.17195 0.45506,0.286079 0.42903,0.56616 -0.0167,0.84101 -0.30173,0.251538 -0.58588,-0.47951 -0.88016,-0.644555 -0.4891,-0.504418 -0.97819,-1.008835 -1.46729,-1.513253 0.22708,-0.299418 0.8843,-0.597722 0.32314,-0.896531 -0.27984,-0.215576 -0.55655,-0.688086 -0.83765,-0.748828 -0.10802,0.104692 -0.21604,0.209384 -0.32405,0.314077 z" />
    <path
       id="path964"
       style="fill:#004680;stroke-width:0.671473"
       class="st2"
       d="m -163.25977,-67.697266 c -1.47614,0.143165 -2.55281,1.309644 -3.805,1.983474 -0.74181,0.246412 0.2183,0.898615 0.32072,1.344275 0.38353,0.117451 0.99752,-0.750386 1.18207,0.247612 0.451,0.735947 0.902,1.471895 1.353,2.207843 -0.67283,0.254249 -0.83504,0.627264 -0.31443,1.164676 0.2088,0.913084 0.79997,0.209964 1.29208,-0.06876 1.20943,-0.812237 2.82134,-1.488158 3.15516,-3.074435 0.50249,-1.756152 -0.86551,-3.760464 -2.7209,-3.805018 -0.15421,-0.01787 -0.30826,-0.0084 -0.4627,3.3e-4 z m -0.15234,1.648438 c 1.27503,0.143772 2.13095,2.165277 0.97656,2.910156 -0.53937,0.437733 -0.70495,-0.787672 -1.07787,-1.09056 -0.22515,-0.496181 -0.84036,-1.079746 -0.83412,-1.524092 0.27072,-0.196584 0.59302,-0.342581 0.93543,-0.295504 z" />
    <path
       id="polygon966"
       style="fill:#004680;stroke-width:0.671474"
       class="st2"
       d="m -154.6541,-72.017566 c -0.36409,0.144444 -0.8054,0.263796 -0.86182,0.543021 -0.91875,0.319376 -1.83751,0.638752 -2.75626,0.958128 -0.0925,-0.427721 -0.66503,0.113821 -0.96526,0.105344 -0.62024,0.01963 -0.45501,0.437164 -0.271,0.863469 0.16823,0.509291 0.33635,1.018619 0.5048,1.527836 0.46692,-0.157026 0.93347,-0.315185 1.40021,-0.472731 -0.24794,-0.44875 -0.21325,-0.756714 0.34483,-0.804563 0.35397,1.037197 0.70794,2.074395 1.06192,3.111593 -0.24665,0.183082 -0.95264,0.156973 -0.90911,0.471536 0.15717,0.396143 0.31361,0.792583 0.47023,1.188946 1.19434,-0.399677 2.38781,-0.801959 3.58152,-1.203553 -0.15845,-0.478743 -0.3176,-0.957248 -0.47806,-1.43531 -0.31518,0.0171 -0.89016,0.599721 -0.95829,0.08342 -0.32277,-0.945177 -0.64554,-1.890354 -0.96831,-2.835532 0.46244,-0.310983 0.66911,-0.09272 0.73537,0.410841 0.47543,-0.159396 0.95093,-0.318568 1.42634,-0.477998 -0.28843,-0.744886 -0.57461,-1.490655 -0.86207,-2.235923 -0.16501,0.06716 -0.33003,0.134314 -0.49504,0.201471 z" />
    <path
       id="polygon968"
       style="fill:#004680;stroke-width:0.671474"
       class="st2"
       d="m -148.80639,-70.832448 c -0.85859,0.167186 -1.71698,0.335457 -2.57576,0.5017 0.1002,0.613762 0.20159,1.227327 0.30303,1.840883 1.03577,-0.168218 2.07127,-0.338159 3.10737,-0.504333 -0.0992,-0.647803 -0.19711,-1.295816 -0.2965,-1.943594 -0.17938,0.03511 -0.35876,0.07023 -0.53814,0.105344 z" />
    <path
       id="path970"
       style="fill:#004680;stroke-width:0.671473"
       class="st2"
       d="m -146.29297,-72.873047 c -0.0664,0.643457 -0.0905,1.244613 0.7293,1.001953 0.29693,0.305662 0.0136,1.179036 0.0908,1.699591 -0.15378,1.073536 0.13139,2.34393 1.18535,2.860517 1.44897,0.877413 3.70717,0.0962 3.95546,-1.679248 0.10623,-0.932396 0.0546,-1.87741 0.10156,-2.814454 0.76389,0.234514 0.85552,-0.321185 0.88923,-0.946339 0.39485,-0.810473 -0.67336,-0.418854 -1.12175,-0.535126 -0.71742,-0.02185 -1.43478,-0.04544 -2.15224,-0.06541 0.12388,0.458409 -0.25514,1.41972 0.2,1.546874 0.86754,-0.264124 0.5223,0.655768 0.5622,1.199655 -0.0525,0.721136 0.19028,1.860781 -0.74658,2.101127 -0.85549,0.213201 -1.16506,-0.842904 -1.01739,-1.503765 0.079,-0.566797 -0.0986,-1.39648 0.14278,-1.797017 0.78885,0.218795 0.88474,-0.255369 0.78086,-0.929296 0.28044,-0.841113 -0.59772,-0.554073 -1.11542,-0.617628 -0.82806,-0.02145 -1.6561,-0.04375 -2.48419,-0.0644 0,0.18099 0,0.36198 0,0.542969 z" />
    <path
       id="polygon972"
       style="fill:#004680;stroke-width:0.671474"
       class="st2"
       d="m -136.10521,-72.412606 c 0.008,0.326406 -0.48763,0.93959 -0.0859,1.041924 0.39961,0.112429 0.98023,0.121799 0.63941,0.665426 -0.23065,0.883311 -0.46131,1.766622 -0.69196,2.649934 -0.36119,-0.05244 -0.89501,-0.41952 -0.89719,0.189867 -0.0584,0.326751 -0.35953,0.78444 -0.27273,1.034463 1.03122,0.29116 2.06226,0.582986 3.0926,0.877279 0.15778,-0.476477 0.31471,-0.953241 0.47152,-1.430042 -0.292,-0.15225 -1.05286,-0.02762 -0.74582,-0.534722 0.12215,-0.19283 0.17462,-1.217145 0.34809,-0.797348 0.48941,1.067399 0.98038,2.134064 1.4688,3.201923 0.35868,0.144602 0.71764,0.28851 1.07627,0.433226 0.43072,-1.574736 0.86027,-3.149798 1.2905,-4.72467 0.33419,0.0042 0.98891,0.490473 0.91699,-0.113837 0.0562,-0.398416 0.11233,-0.796827 0.16974,-1.19506 -1.05123,-0.264328 -2.1021,-0.530066 -3.15308,-0.795346 -0.0817,0.484971 -0.1634,0.969946 -0.24426,1.455062 0.33652,0.120238 0.98234,0.06046 0.6406,0.57757 -0.12325,0.314921 -0.19594,1.208487 -0.41064,0.476577 -0.46485,-0.968166 -0.93113,-1.935638 -1.39507,-2.904248 -0.69119,-0.20623 -1.3812,-0.416468 -2.07157,-0.625479 -0.0488,0.1725 -0.0975,0.345001 -0.14629,0.517501 z" />
    <path
       id="polygon974"
       style="fill:#004680;stroke-width:0.671474"
       class="st2"
       d="m -126.24626,-69.227272 c -0.12316,0.287043 -0.7538,0.677277 -0.54342,0.896628 0.30015,0.212264 0.9665,0.312889 0.52902,0.75052 -0.44278,0.848512 -0.88557,1.697024 -1.32834,2.545536 -0.32217,-0.09048 -0.83855,-0.725271 -0.91299,-0.121503 -0.0538,0.345488 -0.50189,0.835342 -0.28486,1.082731 0.98158,0.539569 1.96326,1.078936 2.94419,1.619696 0.24701,-0.416724 0.49383,-0.83356 0.74191,-1.249641 -0.25061,-0.223779 -1.00431,-0.295113 -0.60576,-0.717048 0.45314,-0.867972 0.90627,-1.735944 1.35942,-2.603916 0.31471,0.08944 0.79122,0.69759 0.89503,0.109169 0.17588,-0.355673 0.35249,-0.710972 0.52868,-1.066481 -1.01726,-0.529785 -2.03559,-1.057506 -3.05381,-1.585425 -0.0897,0.113245 -0.17938,0.22649 -0.26907,0.339734 z" />
    <path
       id="polygon976"
       style="fill:#004680;stroke-width:0.671474"
       class="st2"
       d="m -121.56495,-66.664783 c -0.10247,0.291065 -0.81418,0.667019 -0.45314,0.892976 0.45136,0.17948 0.52147,0.496782 0.30719,0.917938 -0.38891,1.470318 -0.77784,2.940637 -1.16676,4.410955 0.28077,0.163201 0.50769,0.748158 0.82002,0.641696 1.47674,-0.890468 2.95482,-1.778659 4.43208,-2.668248 0.31925,0.268837 0.6309,0.486521 0.82942,-0.02634 0.1,-0.289359 0.81032,-0.660424 0.44845,-0.888975 -0.65284,-0.484908 -1.30567,-0.969839 -1.95838,-1.454926 -0.30037,0.37963 -0.60177,0.758424 -0.90256,1.137713 0.61677,0.301037 -0.17735,0.480789 -0.44903,0.705451 -0.35511,0.213514 -0.86308,0.632496 -0.54509,-0.05882 0.12995,-0.33908 0.16147,-0.960955 0.35279,-1.123747 0.35815,0.458595 0.55859,-0.310911 0.83131,-0.522657 0.38085,-0.315816 0.39178,-0.581368 -0.0855,-0.780533 -0.7154,-0.526208 -1.42981,-1.053776 -2.14603,-1.578841 -0.10493,0.132119 -0.20986,0.264238 -0.31478,0.396357 z" />
    <path
       id="polygon978"
       style="fill:#004680;stroke-width:0.671474"
       class="st2"
       d="m -114.70366,-61.046008 c -0.14598,0.285257 -0.86761,0.570005 -0.56502,0.855659 0.44959,0.295627 0.47792,0.578502 -0.01,0.847623 -0.65866,0.594971 -1.31732,1.189944 -1.97598,1.784916 -0.2865,-0.182639 -0.57191,-0.901021 -0.85777,-0.38933 -0.17009,0.290268 -0.80269,0.568513 -0.66934,0.865739 1.09233,1.21166 2.18466,2.423321 3.27737,3.634633 0.4968,-0.455594 0.9939,-0.910843 1.49034,-1.366836 -0.45652,-0.32033 -0.22435,-0.579214 0.14762,-0.826039 0.34561,-0.307643 0.69208,-0.61431 1.03707,-0.922668 0.22263,0.56911 0.55512,-0.05505 0.84843,-0.239934 0.37353,-0.322354 0.74658,-0.645271 1.12127,-0.966253 -0.31802,-0.400945 -0.6364,-0.801602 -0.95481,-1.202236 -0.29061,0.362393 -0.54984,-0.441378 -0.82657,-0.594791 -0.5565,-0.625619 -1.11341,-1.250862 -1.66951,-1.876838 -0.13105,0.132118 -0.26211,0.264237 -0.39316,0.396355 z m 1.60266,3.247224 c -0.31024,0.330176 -0.54189,-0.220736 -0.83725,0.298913 -0.5244,-0.323675 0.1274,-0.579783 0.36181,-0.859869 0.15849,0.186985 0.31697,0.373971 0.47544,0.560956 z m -1.95272,1.283877 c -0.54119,0.276547 -0.21947,0.571764 -0.21142,0.835509 -0.18642,0.284605 -0.74093,-0.456106 -0.58519,-0.596718 0.31081,-0.193046 0.51037,-0.826808 0.79661,-0.238791 z" />
    <path
       id="path980"
       style="fill:#004680;stroke-width:0.671473"
       class="st2"
       d="m -106.16211,-46.306641 c -1.1261,-0.02212 -1.8483,1.043556 -1.96148,2.066728 -0.14382,0.425483 -0.0329,1.131247 -0.48969,1.337569 -0.41983,-0.275485 -0.54157,-1.16888 0.14017,-1.164565 0.61487,-0.145034 -0.14015,-0.941041 -0.13339,-1.375216 -0.37814,-0.165481 -1.08106,0.293252 -1.58111,0.360358 -0.84245,0.02816 -0.85139,0.490151 -0.51036,1.135793 0.16674,0.507366 0.34325,0.667674 0.40695,1.23699 0.31228,1.239727 1.85284,1.944757 2.95644,1.244186 0.71052,-0.360081 0.9481,-1.189994 1.08067,-1.916061 0.26617,0.36812 0.14088,1.511324 0.79516,1.116752 0.6314,-0.201138 1.26278,-0.40233 1.8943,-0.603081 -0.22531,-0.752627 -0.48749,-1.340759 -0.68403,-2.049716 -0.27251,-0.798749 -1.05258,-1.418321 -1.91363,-1.389737 z m 0.33399,1.775391 c 0.31482,0.187509 0.45117,0.887971 -0.0897,0.861284 -0.57072,0.353248 -0.0809,-0.559985 -0.0626,-0.843706 0.0486,-0.01338 0.10207,-0.03365 0.15235,-0.01758 z" />
    <path
       id="polygon982"
       style="fill:#004680;stroke-width:0.671474"
       class="st2"
       d="m -103.50589,-39.553235 c -0.27549,0.130142 -0.96026,-0.04229 -0.97979,0.276528 0.0885,0.398697 0.23398,0.841367 -0.35222,0.742341 -0.90178,0.130035 -1.80356,0.26007 -2.70535,0.390105 -0.0696,-0.389576 -0.0184,-0.924538 -0.56949,-0.74004 -0.31097,0.09915 -1.12113,-0.243068 -0.96694,0.267376 0.14937,1.146044 0.29975,2.291953 0.44839,3.438093 0.48423,-0.08029 0.96827,-0.161746 1.45246,-0.242291 0.0298,-0.328005 -0.38733,-0.996832 0.20248,-0.897731 0.96918,-0.122131 1.93834,-0.244263 2.9075,-0.366395 0.1047,0.3585 -0.0256,1.045748 0.533,0.763405 0.29505,-0.133351 0.96004,0.009 1.01142,-0.305808 -0.15145,-1.134077 -0.30315,-2.268122 -0.45638,-3.401957 -0.17502,0.02546 -0.35005,0.05092 -0.52508,0.07637 z" />
    <path
       id="polygon984"
       style="fill:#004680;stroke-width:0.671474"
       class="st2"
       d="m -104.42543,-33.028501 c 0.0927,0.308521 -0.23303,1.038876 0.2675,0.936242 0.51554,-0.186329 0.38672,0.819949 -0.11213,0.525789 -0.92692,-0.02954 -1.85384,-0.05907 -2.78076,-0.08861 -0.0953,-0.313841 0.23703,-1.058718 -0.26751,-0.959947 -0.36527,0.04679 -0.90659,-0.09292 -1.16475,0.06734 -0.0592,1.206158 -0.12099,2.412188 -0.17956,3.61838 0.51527,0.07231 1.03027,0.146537 1.5452,0.221219 0.0813,-0.314582 -0.16336,-0.973553 0.1336,-1.060289 1.02348,0.04837 2.04695,0.09674 3.07043,0.145115 0.11131,0.53719 -0.14876,0.684415 -0.64655,0.582024 0,0.488533 0,0.977065 0,1.465597 0.77455,0 1.54911,0 2.32367,0 0,-0.488532 0,-0.977064 0,-1.465597 -0.38788,-0.02861 -0.0614,-0.754437 -0.14694,-1.078154 0.0211,-0.657622 0.0422,-1.315244 0.0633,-1.972866 0.44447,0.0627 0.11878,-0.651028 0.21813,-0.936242 0.17678,-0.599421 -0.26839,-0.571822 -0.72701,-0.53067 -0.53222,0 -1.06444,0 -1.59666,0 0,0.17689 0,0.35378 0,0.53067 z" />
    <path
       id="path986"
       style="fill:#004680;stroke-width:0.671473"
       class="st2"
       d="m -108.89258,-26.417969 c -0.18165,0.703773 -0.36354,1.407486 -0.54492,2.111328 0.45413,-0.05741 1.30581,0.475578 1.50809,0.04692 0.26375,-0.08328 -0.0259,1.102701 -0.24832,1.298783 0.10829,-0.525202 -0.99161,-0.287999 -1.39649,-0.490234 -0.24208,0.943387 -0.48294,1.887088 -0.72656,2.830078 0.48631,-0.04256 1.41065,0.64063 1.46905,-0.105372 0.22322,-0.527785 1.13925,-0.273129 1.64726,-0.479332 1.09215,-0.158813 2.29241,-0.375326 3.31924,-0.49928 -0.75105,0.857995 0.49224,2.222588 1.44426,1.627909 0.73477,-0.308143 0.78564,-1.399344 0.17488,-1.850565 0.97625,-0.129986 1.20774,-1.543964 0.37304,-2.023438 -0.70641,-0.520563 -1.83815,0.143922 -1.74218,0.992188 -1.29297,-1.013672 -2.58594,-2.027344 -3.87891,-3.041016 0.53173,-0.749574 -0.21416,-0.726587 -0.7931,-0.805373 -0.44771,-0.130776 -0.54636,-0.09903 -0.60534,0.387404 z m 2.49414,3.177735 c -0.13166,0.119278 -0.0558,-0.162127 0,0 z m 3.08203,0.945312 c 0.42536,0.476937 -0.57402,0.01596 0,0 z" />
    <path
       id="polygon988"
       style="fill:#004680;stroke-width:0.671474"
       class="st2"
       d="m -111.26191,-18.427847 c -0.48848,1.013505 -0.97739,2.026801 -1.46552,3.040482 0.47293,0.158174 0.94587,0.316294 1.4185,0.475365 0.20981,-0.227495 0.2102,-1.028803 0.6187,-0.710519 0.89486,0.419871 1.78973,0.83975 2.6846,1.259628 -0.11166,0.47993 -0.34226,0.684112 -0.78982,0.390538 -0.26767,0.08734 -0.30476,0.674531 -0.48308,0.957095 -0.32504,0.442464 0.45556,0.447554 0.70219,0.663871 0.40221,0.190381 0.80432,0.380964 1.20681,0.570731 0.2338,-0.394602 0.46781,-0.789077 0.70142,-1.183801 -0.50335,-0.183086 0.0921,-0.681509 0.1434,-1.023767 0.30094,-0.666973 0.60189,-1.333946 0.90283,-2.000912 0.35208,0.07263 0.43233,-0.595548 0.67265,-0.825296 0.4789,-0.447008 -0.27575,-0.500344 -0.58541,-0.695667 -0.48706,-0.217793 -0.97404,-0.435789 -1.46133,-0.653071 -0.17127,0.435089 -0.34348,0.8698 -0.51463,1.304942 0.49846,0.11657 0.58138,0.382144 0.27561,0.786131 -0.97353,-0.456932 -1.94707,-0.913858 -2.9206,-1.370784 0.0286,-0.307698 0.6315,-0.844011 0.22661,-0.977456 -0.37262,-0.150933 -0.74517,-0.302028 -1.11741,-0.453905 -0.0718,0.148796 -0.14368,0.297599 -0.21552,0.446395 z" />
    <path
       id="path992"
       style="fill:#004680;stroke-width:0.671473"
       class="st2"
       d="m -109.35156,-54.535156 c -0.61875,0.229494 -1.14233,0.486579 -0.53561,1.101639 -0.14301,0.407956 -1.01204,0.605065 -1.42732,0.933951 -0.47153,0.08638 -1.19889,1.055994 -1.47915,0.482072 -0.16972,-0.875775 -0.7835,-0.106954 -1.24861,0.101433 -0.57241,0.27089 0.34675,0.947265 0.40984,1.391296 0.34624,0.640409 0.69289,1.280589 1.03866,1.921249 0.6381,-0.504519 0.39588,-0.131619 0.32227,0.373047 0.0646,0.748199 0.59121,1.346171 0.89257,2.009766 0.31974,-0.389138 1.43233,-0.570343 1.13877,-1.121592 -0.43094,-0.417511 -0.0836,-0.818631 0.12264,-1.238705 0.10389,-0.778119 0.60472,-0.26164 1.11555,-0.274469 1.27545,0.02396 2.43728,-1.363215 1.87264,-2.60196 -0.49371,-1.146153 -1.19262,-2.196984 -1.76913,-3.30429 -0.15104,0.07552 -0.30208,0.151042 -0.45312,0.226563 z m 0.5664,3.138672 c 0.34868,0.587811 -0.83638,0.979152 -0.9414,0.285156 0.2859,-0.04731 0.79189,-0.731444 0.9414,-0.285156 z m -2.83203,1.554687 c -0.39203,-0.306718 0.63607,-0.714442 0,0 z" />
    <path
       id="path996"
       style="fill:#004680;stroke-width:0.671473"
       class="st2"
       d="m -141.77734,-53.074219 c -1.31763,0.204829 -2.71344,0.23988 -3.94814,0.771665 -0.48708,0.366792 -1.16486,0.602961 -1.53894,1.047344 -0.15601,0.8588 -0.30778,1.718375 -0.46214,2.577476 1.03987,-1.069503 2.12991,-2.434409 3.71777,-2.491726 1.40619,-0.265554 3.08904,-0.432465 4.18786,0.688762 0.81556,0.717217 1.84395,1.128874 2.73428,1.745789 1.35296,0.819504 3.06582,1.094691 4.07032,2.420763 0.62429,0.938044 0.37795,-0.270648 0.42063,-0.766713 0.23376,-1.138096 -0.91378,-1.928307 -1.81604,-2.330752 -0.9114,-0.306359 -1.71184,-0.816543 -2.46521,-1.412608 -1.24466,-0.449499 -2.20271,-1.427075 -3.35157,-2.033203 -0.50668,-0.125149 -1.01879,-0.258589 -1.54882,-0.216797 z" />
    <path
       id="path998"
       style="fill:#004680;stroke-width:0.671473"
       class="st2"
       d="m -136.97656,-52.078125 c -0.58414,0.321105 -0.0654,1.070951 0.44922,1.132813 1.34494,0.356222 2.57785,1.104565 3.5941,2.044189 1.70826,1.543361 2.11697,3.891971 2.89027,5.947998 0.36949,0.792875 0.84161,1.503481 1.56947,2.009085 0.14569,-0.119103 0.11653,-1.111041 -0.0499,-1.519659 -0.44759,-1.13259 -0.3793,-2.403374 -0.87875,-3.528938 -0.39415,-1.297247 -1.22199,-2.420487 -2.10522,-3.424561 -0.90071,-1.013812 -2.08967,-1.705508 -3.27775,-2.323036 -0.37326,-0.153457 1.00639,-0.56676 -0.2736,-0.44146 -0.5993,0.02645 -1.28067,-0.16074 -1.83271,0.01954 l -0.0711,0.07026 z" />
    <path
       id="path1000"
       style="fill:#004680;stroke-width:0.671473"
       class="st2"
       d="m -129.73047,-41.783203 c 0.76289,1.560341 1.19844,3.29609 1.26627,5.023587 -0.0756,1.028869 -0.12331,2.063686 -0.44657,3.044807 -0.0635,0.751303 -0.12717,1.502583 -0.19079,2.253871 0.8481,-0.925849 1.93206,-1.845682 1.96637,-3.209845 0.16648,-0.99151 0.23156,-2.009601 0.31878,-2.989373 -0.21338,-1.645722 -0.42512,-3.567769 -1.88973,-4.615987 -0.49056,-0.341057 -1.07443,-0.543075 -1.6005,-0.831279 0.19206,0.441406 0.38411,0.882813 0.57617,1.324219 z" />
    <path
       id="path1002"
       style="fill:#004680;stroke-width:0.671473"
       class="st2"
       d="m -141.09375,-54.429688 c -2.54875,-0.04467 -5.32547,0.459789 -7.16016,2.376954 -0.41005,0.267257 -0.38157,1.098516 -0.99609,0.90039 -0.93326,-0.14158 -0.95107,-1.192523 -1.16797,-1.896484 -0.49562,-0.947764 -1.73639,-0.80792 -2.63796,-0.756831 -1.16229,0.06116 -2.22092,0.696344 -2.83617,1.681365 -0.27657,0.504429 -0.99742,0.496274 -1.35743,0.969173 -1.06178,0.979761 -1.70905,2.337461 -2.90657,3.188205 -0.64818,0.544556 -0.60034,1.537505 -0.66177,2.322745 0.0131,0.693337 -0.0351,1.52633 0.6942,1.879982 0.38013,0.194796 0.65946,0.444054 0.53759,0.909089 0.0427,1.287848 -0.57568,2.374578 -1.21665,3.431272 -0.29686,0.883632 0.10146,1.96776 -0.68188,2.677898 -0.96574,1.229855 -1.52173,2.72829 -2.52227,3.925216 -0.76407,1.099991 0.22468,2.777325 1.55766,2.682042 0.12442,0.685359 -0.32314,1.466698 0.0957,2.101563 -0.24975,0.661629 -0.27016,1.62425 0.53907,1.896484 0.14007,0.293651 -0.35944,0.582895 -0.42578,0.882813 -0.73326,1.521764 0.0148,3.623838 1.68842,4.130899 1.37509,0.416795 2.84799,0.345948 4.2437,0.69418 0.70134,-0.05878 0.3313,0.84681 0.55481,1.240232 0.58444,1.883374 1.96336,3.540819 1.90169,5.601963 -0.0117,1.000889 -0.0738,2.001343 -0.0644,3.002647 0.59766,0 1.19532,0 1.79297,0 -0.0971,-1.874201 0.29687,-3.839505 -0.44795,-5.62372 -0.51924,-1.402046 -1.64209,-2.560193 -1.7477,-4.106439 -0.0492,-0.519398 0.83235,-0.420413 1.17222,-0.697575 1.96799,-0.837857 3.60978,-2.277022 5.20507,-3.671875 0.40735,-0.310956 0.91481,-0.970669 1.22266,-1.152344 0.31408,1.98977 0.85671,3.945186 1.25781,5.921875 -0.80435,1.219899 -1.6922,2.394576 -2.15017,3.799971 -0.67501,1.537131 -1.33695,3.079014 -1.70601,4.723407 -0.26055,1.23905 -0.88271,2.4281585 -0.85476,3.707091 0.65756,0 1.31511,0 1.97266,0 0.0538,-3.541643 1.56711,-6.842124 3.09375,-9.966797 1.45581,-1.959723 2.77851,-4.02727 4.50291,-5.769418 1.51155,-1.676988 3.02929,-3.36504 4.64543,-4.934955 0.69771,-0.487558 1.39568,-0.97474 2.09385,-1.461642 0.25639,0.541453 0.43058,1.12325 0.5293,1.71289 -1.39742,0.275385 -2.17626,1.739479 -2.05091,3.082257 -0.23993,0.19805 -0.79731,0.252827 -1.05355,0.581367 -1.12227,1.161545 -1.13801,2.980423 -0.70715,4.448982 0.27234,1.058893 -0.291,2.466924 0.70809,3.244816 0.40096,0.240934 0.76033,0.456181 1.08008,0.794922 0.83715,0.53373 1.76959,-0.241666 2.14844,-0.986328 0.3492,-0.385728 0.77202,-0.779578 1.33203,-0.591797 0.53101,-0.06471 1.10661,-0.0067 1.58398,-0.291016 0.18887,0.587546 0.51993,1.16383 1.0625,1.488281 -0.3213,1.16853 0.44866,2.457941 1.64655,2.694805 1.55275,0.488306 3.69598,-0.0136 4.28143,-1.694881 0.37178,-1.048047 0.43004,-2.245363 0.20288,-3.322189 -0.53851,-0.71369 -0.40855,-1.724506 0.23242,-2.316406 0.49611,-1.064231 0.79548,-2.377195 0.33008,-3.501953 -0.15158,-0.477249 -0.86236,-0.674596 -0.60788,-1.258103 0.13577,-1.281615 0.29159,-2.841185 -0.69681,-3.841507 -0.75315,-0.733811 -1.8916,-0.560143 -2.84375,-0.449219 -0.0373,-0.56921 -0.49287,-1.244674 0.061,-1.706064 1.52155,-2.039005 1.47476,-4.746774 1.10996,-7.146971 -0.40114,-3.844442 -1.90743,-7.465496 -3.62408,-10.891105 -1.90636,-2.980631 -5.52677,-4.361031 -8.93504,-4.581088 -1.00453,-0.07672 -2.01286,-0.08633 -3.02004,-0.07907 z m 0.1875,1.814454 c 1.85053,0.07049 3.64747,-0.01532 5.40921,0.65829 1.18648,0.471444 2.41881,0.817053 3.47668,1.503623 1.6673,1.336264 2.4543,3.414605 3.26811,5.321001 0.57419,2.136218 1.42562,4.206438 1.60404,6.431348 0.16206,1.881885 0.63628,4.012148 -0.52367,5.681441 -0.40908,0.463617 -0.9119,0.895073 -1.46289,1.167969 0.37626,-0.714168 0.1142,-1.494339 -0.3164,-2.109376 -0.32347,-0.778281 -0.0804,-1.873957 -0.85068,-2.475042 -0.61679,-0.576256 -1.30762,-1.284758 -2.2294,-1.165582 -0.14397,-0.657173 -0.39893,-1.286264 -0.71094,-1.88086 0.63481,0.309724 1.44843,0.401274 1.98047,0.839844 0.1201,0.717841 0.27975,1.469083 0.92383,1.910156 0.60726,0.561392 1.41595,1.018069 1.57812,1.898438 0.25347,0.517592 1.13491,0.401669 1.15821,-0.226563 0.10363,-0.808551 -0.19279,-1.669554 -0.88086,-2.146484 0.64702,-1.46674 -0.0728,-3.259171 -1.25391,-4.246094 -0.54802,-0.543268 -1.67659,-0.403335 -1.76953,-1.353516 -0.38606,-1.028519 -0.15762,-2.208453 -0.67283,-3.183975 -0.78892,-1.109845 -2.32944,-0.997437 -3.4781,-1.487376 -1.71596,-0.602325 -2.91896,-2.253467 -4.77107,-2.535925 -0.89641,-0.157407 -0.60861,-0.164084 0.17161,-0.148192 0.5855,0.01343 -0.55799,-0.796391 -0.79648,-1.074219 -1.02558,-0.488008 -2.2085,-0.222524 -3.27539,-0.04102 -0.57762,0.154845 -0.9571,0.856911 -1.60028,0.66503 -0.40707,-0.01753 -0.88914,0.06495 -1.24543,0.0752 0.22181,-0.740992 1.06622,-1.136986 1.74414,-1.394532 1.44348,-0.555779 2.98639,-0.71878 4.52344,-0.683593 z m -11.32617,0.5625 c 0.50298,-0.06764 0.52205,0.47621 0.6543,0.804687 -0.59917,-0.10313 -1.24582,0.0038 -1.76758,0.318359 -0.22238,-0.40828 -1.21393,-0.701461 -0.45899,-1.050781 0.4673,-0.282484 1.06002,-0.03622 1.57227,-0.07227 z m -3.00586,1.703125 c 0.45278,0.111385 0.83933,0.416291 0.24746,0.680636 -0.37438,0.535451 -1.08761,0.157672 -1.61766,0.450535 -0.72292,0.380068 0.0363,-0.319137 0.29413,-0.507033 0.32066,-0.263647 0.66397,-0.538089 1.07607,-0.624138 z m 3.51172,0.960937 c 0.2926,-0.0034 1.06316,0.902676 0.6914,0.59961 -0.71205,-0.526335 -1.67105,-0.514895 -2.38281,0.0039 -0.31048,0.157465 -0.75086,0.503825 -0.92969,0.654297 0.70494,-0.666501 1.61965,-1.262419 2.6211,-1.257813 z m 5.32226,0.279297 c 0.64843,0.0478 1.30152,0.219374 1.89258,0.488281 0.33344,1.554967 -0.87293,2.847504 -1.28516,4.263672 0.14954,0.795124 0.93316,1.251576 1.3125,1.935547 0.35247,0.692686 0.28569,1.575889 -0.21289,2.185547 0.0217,0.511593 0.0794,1.021542 0.20118,1.519531 -0.93643,0.645937 -2.20052,0.685595 -3.05274,1.445313 -0.30181,0.521293 0.10173,1.041223 0.67805,0.992154 0.43559,0.05806 0.91921,-0.233439 0.57781,0.351596 -0.0829,0.639906 0.8841,0.902174 1.36328,0.589843 0.4784,-0.28815 0.92191,-0.483952 0.83505,0.23749 0.0497,0.504302 0.0143,1.152309 0.68288,1.172986 0.84652,0.141773 1.73122,-0.07075 2.5602,-0.0023 0.74685,0.428551 0.0437,1.238034 -0.10535,1.820092 -0.41552,0.977817 -0.66119,2.043944 -1.16223,2.972877 -1.25184,0.671545 -2.71766,0.831872 -4.10821,1.080564 -1.13127,0.109366 -2.25287,0.324452 -3.3804,0.427586 -0.70894,0.05277 -1.71156,-0.31864 -1.50663,-1.201334 0.0839,-0.382085 0.13159,-1.013698 0.48157,-1.174003 0.82682,0.07406 1.02698,-1.042591 0.45117,-1.498047 -0.0828,-0.396941 0.18718,-0.761865 0.6582,-0.662109 0.5439,-0.02491 0.9934,-0.71354 0.76917,-1.16292 -0.42835,-0.311021 -1.00817,-0.984751 -1.51526,-0.426924 -0.33118,-0.227382 -0.62093,-0.617429 -1.05859,-0.613282 0.12766,-0.335269 -0.36324,-1.469676 0.20898,-1.234374 0.91711,0.392261 2.0378,-0.638522 1.5156,-1.560795 -0.23131,-0.487591 -0.69693,-0.871839 -1.0156,-0.218502 -0.46331,0.506635 -1.04001,-0.172909 -1.58203,-0.136719 -0.30563,-0.07854 -0.79541,0.06514 -0.99414,0.03125 1.01638,-1.715783 2.27694,-3.272009 3.25976,-5.007813 0.0863,-0.787353 0.18173,-1.608428 0.74823,-2.20693 0.64668,-1.208574 0.72656,-2.653019 1.30646,-3.892679 0.28054,-0.60851 0.93615,-0.430035 1.47656,-0.515625 z m -8.34765,1.447266 c -0.2094,0.369562 -0.26626,0.410187 0,0 z m 13.46289,0.04492 c 0.57854,-0.129758 0.97349,0.355391 1.28515,0.763672 -0.44154,-0.471008 -1.1482,-0.595297 -1.72265,-0.734375 0.14584,-0.0095 0.29163,-0.02049 0.4375,-0.0293 z m -10.95117,0.16211 c 0.58434,0.104479 -0.3577,0.429081 -0.40039,0.71875 -0.32778,0.445956 -0.77705,0.72986 -1.25586,0.285156 0.46005,-0.376677 1.00375,-0.941466 1.65625,-1.003906 z m -4.2461,0.208984 c 0.15208,0.487281 -0.0733,0.614816 -0.50274,0.77361 -0.77289,0.349117 -1.38765,0.951774 -1.87031,1.622875 -0.34275,-0.31084 -0.0802,-0.935878 -0.13471,-1.372743 -0.0643,-0.543217 0.6238,-0.185553 0.9394,-0.365539 0.58042,-0.125967 1.15736,-0.365743 1.58594,-0.787109 l -0.0135,0.09908 z m 18.41992,0.369141 c 1.16032,0.748683 2.41451,1.338842 3.76411,1.633098 0.83504,0.160101 0.5653,1.177614 0.73941,1.787679 0.0949,0.996758 0.52401,1.979327 1.41854,2.501483 0.58144,0.377355 0.23827,0.261988 -0.26628,0.10893 -0.54424,-0.18325 -1.32608,-0.273553 -1.38001,-0.985563 -0.32167,-0.895985 -0.3967,-2.212268 -1.50748,-2.580326 -0.66139,-0.210102 -1.43348,-0.193079 -1.88547,-0.828582 -0.50537,-0.512657 -0.87764,-1.14044 -1.15625,-1.800782 0.0911,0.05469 0.18229,0.109375 0.27343,0.164063 z m -1.75976,0.253906 c 0.40635,0.658488 0.67619,1.400415 1.17187,2.003906 -0.37098,-0.145155 -0.97033,-0.217718 -0.83398,-0.759765 -0.0694,-0.446249 -0.12697,-0.919484 -0.38477,-1.302735 z m -10.80469,0.128906 c -0.15048,0.223412 -0.99669,0.881107 -0.4371,0.327727 0.11652,-0.128068 0.32593,-0.279907 0.4371,-0.327727 z m 7.64258,0.578125 c 0.58757,0.06473 1.2708,0.0544 1.74414,0.445313 -0.0411,0.313512 0.22339,1.069316 0.0816,1.10806 -0.70419,-0.510982 -1.38685,-1.078583 -2.20464,-1.402982 8.3e-4,-0.247403 0.21491,-0.130934 0.37891,-0.150391 z m -12.9043,0.892578 c 0.59334,0.07359 0.76174,0.105621 0.81055,0.716797 0.84873,1.124524 2.54516,1.073794 3.6875,0.460938 -0.32488,1.52734 -1.47704,2.677522 -2.21413,4.012106 -0.65634,1.024786 -1.66536,2.219263 -1.13157,3.517191 0.3033,0.691211 1.16431,0.486387 1.75976,0.513672 0.0816,0.899807 -0.22352,2.025852 0.4707,2.742187 -0.22827,0.620261 -0.2981,1.558726 0.49805,1.787109 0.23506,0.327253 -0.27643,0.795662 -0.36719,1.15625 -0.27456,0.848956 -0.33414,1.841134 -0.0703,2.689454 0.68768,1.092936 2.11469,1.266454 3.293,1.283975 0.57276,0.07135 -0.71452,0.734545 -0.93898,1.059561 -1.59478,1.348076 -3.35626,2.874168 -5.54191,2.988495 -1.31796,-0.0722 -2.61062,-0.36741 -3.93516,-0.390625 -0.76193,-0.05092 -1.47494,-0.617444 -1.41992,-1.427734 -0.21643,-0.891586 1.10961,-1.351124 0.80274,-2.279297 -0.11153,-0.458972 -0.32648,-0.897021 -0.70117,-1.197266 0.21229,-0.08495 0.80853,0.215605 1.18554,0.08398 0.80173,0.05757 0.99222,-1.184416 0.29492,-1.441406 -0.55846,0.118737 -0.77277,-0.315002 -1.24218,-0.478515 -0.21861,-0.0071 -0.0715,-0.910067 0.1679,-0.65956 0.72222,0.418958 1.53784,-0.03191 2.13483,-0.461534 -0.0455,-0.696699 -0.41201,-1.312423 -0.66825,-1.926084 -0.0576,-0.469005 0.012,-1.47918 -0.12027,-1.630878 -0.3283,0.718185 -0.91396,1.407444 -1.07623,2.151116 0.37237,0.63662 -0.21282,0.105266 -0.51218,0.07244 -0.58747,-0.254612 -1.22967,0.01262 -1.82619,-0.08457 0.17139,-0.974688 1.17531,-1.559809 1.56886,-2.450972 0.47622,-1.112402 1.60107,-1.848386 1.88817,-3.043169 0.0889,-0.792238 4.7e-4,-1.624023 0.51172,-2.302734 0.43333,-1.096845 0.75109,-2.238566 0.77734,-3.423828 0.50731,-0.60356 0.37912,-1.614346 1.21875,-1.927734 0.22016,-0.09394 0.4748,-0.321129 0.69531,-0.109376 z m 12.33399,0.890626 c 0.45445,0.126605 0.86582,0.466277 1.18359,0.761718 -0.4262,0.131528 -0.79049,0.350909 -0.95703,-0.242187 -0.01,-0.124139 -0.76793,-0.789369 -0.22656,-0.519531 z m 7.05468,1.033203 c 0.33743,0.217455 0.87767,0.239688 0.83729,0.747308 0.14269,0.637784 0.39866,1.268169 0.8131,1.781989 -0.44875,-0.123395 -1.25702,0.386198 -1.30004,-0.351606 -0.25322,-0.80636 -0.53326,-1.603991 -0.79956,-2.406207 0.14973,0.07617 0.29947,0.152344 0.44921,0.228516 z m -3.31836,-0.09375 c 0.85278,0.256764 1.7859,0.901775 1.72461,1.882812 -0.6125,-0.351643 -0.81953,-1.245135 -1.57422,-1.470703 -0.0115,-0.11645 -0.45267,-0.612702 -0.15039,-0.412109 z m -1.97851,1.416015 c 0.47643,-0.05694 -0.53327,0.535074 -0.0566,0.923828 0.45662,0.537175 1.43881,0.922894 1.21289,1.78711 -0.12678,0.587037 -0.86752,0.156845 -1.18555,-0.05859 -0.46342,-0.318618 -1.25166,-0.745131 -0.92383,-1.404297 0.24977,-0.40057 -0.15018,-1.228704 0.5293,-1.25 0.14067,-0.02147 0.28262,0.0018 0.42383,0.002 z m 2.69922,1.839844 c 0.48488,0.273245 1.22728,0.215005 1.591,0.629615 0.18329,0.700802 0.39132,1.543512 0.0574,2.264916 -0.47669,-0.286413 -1.07581,-0.156637 -1.56446,-0.257812 -0.0647,-0.378899 -0.42493,-0.703049 -0.13867,-1.060547 0.17059,-0.53895 0.11627,-1.141356 -0.0801,-1.666016 l 0.0832,0.05547 z m 4.05664,1.097656 c 0.60541,0.657709 1.02713,1.633716 0.60203,2.501309 -0.0808,0.427405 -0.60656,0.933639 -0.96922,0.473301 -0.46064,-0.112243 -0.65557,-0.390745 -0.32945,-0.778378 0.22197,-0.676016 0.14858,-1.391679 0.11851,-2.08881 0.17642,-0.09337 0.38054,-0.126147 0.57813,-0.107422 z m -4.67188,2.822266 c 0.40922,0.08663 0.41627,0.700335 0.0937,0.648437 -0.0816,-0.144646 -0.10283,-0.595699 -0.0937,-0.648437 z m -2.5957,0.08398 c 0.30102,1.179795 -0.14332,-0.116144 0,0 z m 9.70703,-0.01953 c 0.39408,0.214589 0.96417,0.343208 1.07227,0.84375 -0.65947,0.04869 -1.32774,0.152682 -1.94141,0.404297 0.35883,-0.33805 0.62918,-0.771578 0.73438,-1.253906 l 0.0781,-0.0039 z m -4.44141,0.966797 c 0.43408,0.177269 0.93356,0.710882 0.71876,1.138672 -0.46099,-0.384586 -1.0379,-0.739105 -1.4711,-1.058594 -0.60249,-0.252272 0.47496,-0.463562 0.65292,-0.137356 l 0.0866,0.04992 z m 2.67774,1.455078 c 0.82023,0.466615 -0.33589,0.540074 -0.0977,-0.09766 l 0.0707,0.07071 z m 3.20898,0.07227 c 0.74755,-0.125743 0.68267,1.189995 -0.0215,1.111328 -0.6611,-0.007 -1.25746,-0.230347 -1.79688,-0.582032 -0.9722,-0.193632 -0.51713,-0.214484 0.21427,-0.29943 0.53029,-0.105764 1.05437,-0.271073 1.60409,-0.229866 z m -6.78906,0.292968 c 0.71438,0.476945 1.32346,1.155653 2.21912,1.281834 0.4505,0.207156 0.98414,0.245118 1.38635,0.528713 -1.91049,1.386431 -3.87487,2.732819 -5.43203,4.530602 -1.49369,1.547458 -2.7844,3.278659 -4.13242,4.942055 -0.3424,-1.489776 -0.6104,-2.997684 -1.0293,-4.46875 1.56974,-0.277546 3.31133,-0.578986 4.48633,-1.75 0.85617,-1.0885 1.21163,-2.536507 1.74884,-3.824313 0.20221,-0.436784 0.24662,-1.074056 0.75311,-1.240141 z m 5.80078,2.4375 c -0.0259,0.02551 -0.061,-0.05737 0,0 z m 6.82813,2.31836 c 0.79911,0.136058 0.82988,1.115743 0.61523,1.728515 -0.18093,0.385493 0.17303,1.188142 -0.37462,1.197951 -0.32644,0.0057 -1.28124,0.270211 -0.89227,-0.286174 0.30906,-0.736923 0.59321,-1.652974 -0.0378,-2.31412 -0.58164,-0.553861 0.34453,-0.298372 0.68946,-0.326172 z m -2.28125,0.953125 c 0.5863,0.472342 0.0421,1.018512 0.006,0.0704 l -0.0218,-0.08407 z m -2.95899,0.833984 c -0.21594,0.508653 -0.62089,0.948856 -0.70703,1.521485 0.029,-0.603724 0.30341,-1.173549 0.63281,-1.669922 0.17325,-0.07689 0.0742,0.07794 0.0742,0.148437 z m -2.27148,0.380859 c -0.23696,0.634228 -0.3315,1.368326 -0.0566,2.00586 -0.18513,-0.438666 -0.92702,-0.596725 -0.74882,-1.137641 0.0685,-0.536319 0.3585,-1.12432 0.94999,-1.204156 -0.0482,0.111979 -0.0964,0.223958 -0.14453,0.335937 z m 3.47461,0.841797 c -0.31148,0.244987 0.17769,1.164669 -0.17383,0.763672 -0.28878,-0.163807 0.24722,-0.973025 0.17383,-0.763672 z m 5.35156,1.578125 c 0.23932,0.432335 0.48535,1.215551 0.0215,1.519532 -0.56827,-0.66848 -1.26594,-1.23233 -2.0332,-1.658204 0.67057,0.04622 1.34115,0.09245 2.01172,0.138672 z m -10.35547,0.398438 c 0.25324,0.140051 0.92,1.02199 0.38887,0.454088 -0.0182,-0.08776 -0.89336,-0.720627 -0.38887,-0.454088 z m 7.42774,0.742187 c 0.87435,0.358198 1.39983,1.183299 2.08398,1.783203 -0.0484,0.492682 -0.49999,0.155764 -0.84766,0.1875 -0.64589,0.136025 -0.67437,-0.395536 -0.83539,-0.878183 -0.19299,-0.531075 -0.5189,-1.009536 -0.95757,-1.36791 0.18554,0.0918 0.37109,0.183593 0.55664,0.27539 z m -5.00977,-0.04102 c 0.17474,0.373194 0.46709,0.779964 0.46094,1.18164 -0.19199,-0.34303 -0.46517,-0.941367 -0.46094,-1.18164 z m -3.65039,0.52539 c 0.37648,0.215192 1.21575,0.925468 0.26367,0.708985 -0.65193,0.343998 -0.60813,-0.191916 -0.39062,-0.666016 0.0116,-0.0574 0.0824,-0.05416 0.12695,-0.04297 z m 7.62695,1.253907 c 0.43376,0.378835 -0.39184,0.199111 -0.60351,0.146484 0.0617,-0.86379 -0.008,-0.76189 0.60351,-0.146484 z m -7.03125,0.9375 c -0.003,0.02744 -0.62722,0.475112 -0.40429,0.08203 0.11069,-0.07784 0.27189,-0.117475 0.40429,-0.08203 z m 2.81836,0.09766 c 0.38457,0.197092 0.87906,0.205173 1.28321,0.0625 -0.41844,0.670576 -1.28656,0.64164 -1.96094,0.494141 0.53157,0.205727 0.50887,-0.409921 0.67773,-0.556641 z m 3.75,0.847656 c 0.94794,0.257007 1.93201,-0.03656 2.8759,0.09477 0.38721,0.10366 0.7817,0.293001 0.78426,0.74117 0.37475,0.739168 -0.1362,0.118829 -0.49375,-0.05924 -0.83767,-0.658608 -2.15877,-0.36779 -2.85977,0.3483 -0.21949,-0.263091 -0.76462,-1.15845 -0.37884,-1.140812 z m -5.74609,0.519531 c 0.62379,0.252918 -0.37949,0.601676 -0.54883,0.919922 -0.6113,-0.225162 0.11666,-1.047827 0.54883,-0.919922 z m 7.33203,1.748047 c -0.52983,0.7247 0.49773,1.483834 1.20898,1.351563 0.67093,-0.02863 -0.6072,0.399019 -0.86548,0.293611 -0.62579,0.06843 -1.39713,-0.519665 -0.99194,-1.176424 0.007,-0.253685 0.72441,-0.632511 0.64844,-0.46875 z" />
    <path
       id="path1004"
       style="fill:#004680;stroke-width:0.671473"
       class="st2"
       d="m -158.34961,-38.740234 c -0.6184,-0.121362 -1.42713,0.395241 -1.11914,1.078125 0.16242,0.498664 0.31162,1.198905 -0.12695,1.607421 -0.30739,0.540193 -0.50975,1.182943 0.36601,0.925782 0.60588,0.002 1.30974,-0.143264 1.42146,-0.847453 0.26357,-0.344903 -0.13359,-1.20408 0.53089,-0.943563 0.39746,0.217983 1.01849,0.344839 1.25316,0.851628 0.5161,0.88078 1.62227,0.430068 2.44215,0.535091 -0.70221,-0.619717 -1.29007,-1.351689 -1.70117,-2.191406 -0.44327,-0.408455 -1.09395,-0.440386 -1.58216,-0.786393 -0.47214,-0.234093 -0.96251,-0.274609 -1.48425,-0.229232 z" />
    <path
       id="path1006"
       style="fill:#004680;stroke-width:0.671473"
       class="st2"
       d="m -157.8457,-37.369141 c -0.45815,0.150158 -0.76505,0.350554 -0.61914,0.894532 0.25423,0.325354 0.0614,0.779981 0.18554,1.126953 -0.49289,0.46045 0.0757,1.342944 0.71211,1.095703 0.82739,0.11509 1.61883,-0.330787 2.1668,-0.917969 0.0596,-0.480788 0.12925,-1.052393 -0.35782,-1.338289 -0.31635,-0.461261 -0.93788,-0.467592 -1.35419,-0.806505 -0.24155,0.002 -0.50617,-0.163218 -0.7333,-0.05443 z" />
    <path
       id="path1008"
       style="fill:#004680;stroke-width:0.671473"
       class="st2"
       d="m -148.97852,-44.136719 c -0.728,0.04956 -1.06656,0.850694 -1.77534,0.802301 -1.00309,0.04424 0.4941,0.462604 0.79546,0.702032 0.56905,0.321688 1.26979,0.07561 1.85028,0.429217 0.56515,0.204118 0.87539,0.81771 1.35421,1.109419 0.67332,0.266266 1.61822,-0.495357 1.08778,-1.159057 -0.82323,-0.85899 -1.83424,-1.868033 -3.16042,-1.884866 -0.0507,3.93e-4 -0.10193,-0.01626 -0.15197,9.54e-4 z" />
    <path
       id="path1010"
       style="fill:#004680;stroke-width:0.671473"
       class="st2"
       d="m -146.87695,-41.470703 c -0.65411,0.132961 -1.58177,0.179692 -1.97217,0.831224 -0.19274,0.501966 0.0673,0.983301 0.64443,0.860182 0.59623,-0.0059 1.10066,-0.453481 1.70469,-0.269531 0.48252,0.04216 1.04118,-0.402632 1.01598,-0.85198 -0.18681,-0.595668 -0.87982,-0.54476 -1.39293,-0.569895 z" />
    <path
       id="path1012"
       style="fill:#004680;stroke-width:0.671473"
       class="st2"
       d="m -149.30469,-43.175781 c -0.73432,-0.0738 -0.97038,0.772989 -0.6573,1.315166 0.23271,0.189748 0.32717,0.465669 0.54402,0.800068 0.4549,0.293946 -1.34474,0.998563 -0.52848,0.881222 1.00075,-0.252103 2.18707,-0.157088 3.02262,-0.824581 0.49997,-0.239351 0.30951,-0.65911 0.10938,-1.085938 -0.50242,-0.838115 -1.57222,-1.093378 -2.49024,-1.085937 z" />
  </g>
</svg>
