<?xml version="1.0" encoding="UTF-8" standalone="no"?>
<!DOCTYPE svg PUBLIC "-//W3C//DTD SVG 1.1//EN" "http://www.w3.org/Graphics/SVG/1.1/DTD/svg11.dtd">
<svg width="100%" height="100%" viewBox="0 0 132 131" version="1.1" xmlns="http://www.w3.org/2000/svg" xmlns:xlink="http://www.w3.org/1999/xlink" xml:space="preserve" xmlns:serif="http://www.serif.com/" style="fill-rule:evenodd;clip-rule:evenodd;stroke-miterlimit:3.864;">
    <g transform="matrix(0,1,1,0,0.39,-0.282)">
        <path d="M65.836,0.249C29.829,0.249 0.639,29.438 0.639,65.445C0.639,101.454 29.829,130.643 65.836,130.643C101.844,130.643 131.033,101.454 131.033,65.445C131.033,29.438 101.844,0.249 65.836,0.249" style="fill:white;fill-rule:nonzero;"/>
    </g>
    <g transform="matrix(1,0,0,1,0,-27.089)">
        <path d="M56.529,77.171L56.425,77.276L56.613,77.338L57.617,77.593L58.638,78.337L59.163,78.967L59.69,79.328C59.69,79.328 60.02,79.089 59.766,78.804L59.45,78.43L58.837,77.695L58.447,77.471L57.968,77.291L57.429,77.187L56.89,77.142L56.529,77.171ZM56.998,81.241C56.998,81.241 56.939,81.273 56.877,81.261C56.877,81.261 56.783,81.218 56.814,81.152L56.893,81.011L57.064,80.902L57.252,80.808L57.455,80.745L57.643,80.651L58.002,80.511L58.314,80.402L58.518,80.308L58.752,80.245L59.002,80.183L59.08,80.105L59.096,79.98L59.08,79.902L58.986,79.823L58.861,79.792C58.861,79.792 58.736,79.777 58.658,79.792C58.58,79.808 58.486,79.87 58.439,79.87C58.393,79.87 58.143,80.027 58.143,80.027L57.799,80.198L57.533,80.308L57.283,80.402L56.986,80.448C56.986,80.448 56.783,80.448 56.736,80.464C56.689,80.48 56.428,80.433 56.439,80.433C56.44,80.433 56.275,80.437 56.189,80.37C56.162,80.349 56.218,80.202 56.214,80.23C56.214,80.23 56.331,80.175 56.386,80.183C56.386,80.183 56.515,80.171 56.542,80.183L56.667,80.167L57.12,80.167L57.401,80.105C57.401,80.105 57.463,80.062 57.49,79.96L57.533,79.745L57.486,79.48L57.393,79.355L57.236,79.245L56.986,79.089C56.986,79.089 56.846,79.011 56.814,79.011C56.783,79.011 56.58,78.933 56.58,78.933L56.377,78.948C56.377,78.948 55.828,78.967 55.708,79.157L55.573,79.181L55.618,78.694L55.721,78.352L56.011,78.331L56.439,78.417L56.658,78.495L56.861,78.605L57.158,78.714L57.361,78.823L57.564,78.902L57.877,78.886L58.018,78.839L58.049,78.714L57.986,78.542L57.83,78.355L57.518,78.12L57.189,77.933L57.049,77.823L56.893,77.73L56.705,77.683L56.455,77.636L56.174,77.636C56.174,77.636 55.916,77.652 55.9,77.636C55.9,77.636 55.771,77.554 55.783,77.511L55.752,77.261L55.744,77.098L55.932,76.957L56.135,76.863L56.51,76.816L57.525,76.816L57.791,76.832L58.166,76.895L58.432,77.004L58.869,77.207L59.088,77.379L59.494,77.848L59.838,78.238L60.15,78.676L60.541,79.129L60.916,79.629C60.916,79.629 61.01,79.727 61.072,79.816C61.1,79.856 61.131,80.027 61.119,80.068L61.088,80.333C61.088,80.333 60.978,80.48 60.783,80.507L60.439,80.511L59.455,80.511C59.408,80.511 59.111,80.542 59.033,80.558L58.752,80.62L58.471,80.745L58.236,80.839L57.846,80.98L57.424,81.12L56.998,81.241" style="fill:rgb(0,55,108);"/>
    </g>
    <g transform="matrix(1,0,0,1,0,48.553)">
        <path d="M87.852,41.86C88.076,41.57 88.115,40.785 90.82,40.583C91.438,40.584 91.744,41.377 91.299,41.389C91.102,41.394 90.926,41.374 90.926,41.374C90.354,41.389 90.496,41.711 90.496,41.711C90.496,41.711 90.693,42.202 91.574,42.135C91.652,42.129 91.992,42.118 92.076,42.095C93.313,41.768 92.383,40.862 92.383,40.862C92.111,40.553 91.383,40.36 91.383,40.36L91.078,40.293L90.572,40.245L89.646,40.36C88.17,40.669 87.572,40.56 87.572,40.56L87.852,41.86" style="fill:rgb(0,55,108);fill-rule:nonzero;"/>
    </g>
    <g transform="matrix(1,0,0,1,0,42.925)">
        <path d="M86.049,43.566L86.699,43.865C86.699,43.865 87.982,44.833 89.443,44.602C89.519,44.591 92.111,44.352 93.176,45.493C93.176,45.252 93.197,44.784 93.146,44.68C92.769,43.888 91.059,43.895 91.059,43.895C89.144,44.368 87.77,43.715 87.77,43.715C87.77,43.715 86.689,42.905 86.611,42.867C86.535,42.828 85.777,42.582 85.777,42.582L86.049,43.566" style="fill:rgb(0,55,108);fill-rule:nonzero;"/>
    </g>
    <g transform="matrix(1,0,0,1,0,40.517)">
        <path d="M94.234,47.185L93.301,45.706C92.83,45.166 91.564,45.128 91.564,45.128L90.793,45.089C90.793,45.089 89.598,45.197 89.482,45.205C88.221,45.294 86.805,44.742 86.805,44.742L86.342,44.588C86.342,44.588 86.188,43.993 86.188,43.916C86.188,43.839 86.227,43.298 86.227,43.298C86.467,44.155 87.307,44.108 87.307,44.108C87.572,44.181 87.691,44.07 87.691,44.07L89.059,44.147L91.025,44.07C91.025,44.07 91.846,44.144 91.924,44.148C93.473,44.211 93.957,45.86 93.957,45.86L94.234,47.185" style="fill:rgb(0,55,108);"/>
    </g>
    <g transform="matrix(1,0,0,1,0,24.024)">
        <path d="M94.266,58.782L93.688,58.01L93.185,57.586L92.645,57.2L92.105,56.891L91.603,56.583L90.947,56.236L90.021,55.735L89.213,55.272L88.518,54.732L87.963,54.384L87.654,54.038L87.615,53.343L87.691,52.479L87.924,51.823L88.078,51.245L88.193,50.627L88.287,50.048L88.248,49.624L88.193,49.084L88.078,48.506L88.527,48.194L88.826,48.699L88.943,49.123L88.98,49.624L88.943,50.125L88.904,50.782L88.789,51.322L88.596,51.939L88.402,52.401L88.248,52.919L88.154,53.497L88.248,53.999L88.75,54.384L89.406,54.578L90.369,55.001L91.219,55.272L91.912,55.541L92.529,55.927L93.068,56.313L93.609,56.699L94.227,57.239L94.805,57.894L94.689,58.242L94.266,58.782" style="fill:rgb(0,55,108);fill-rule:nonzero;"/>
    </g>
    <g transform="matrix(1,0,0,1,0,28.694)">
        <path d="M95.248,51.812C94.801,50.965 93.396,50.886 93.396,50.886C93.26,50.849 93.164,50.693 93.164,50.693C93.164,50.693 93.197,50.594 93.318,50.578C93.922,50.494 95.17,51.053 95.17,51.053L95.285,51.349L95.248,51.812Z" style="fill:rgb(0,55,108);fill-rule:nonzero;stroke:rgb(0,55,108);stroke-width:0.14px;"/>
    </g>
    <g transform="matrix(1,0,0,1,0,19.268)">
        <path d="M89.135,53.84C89.135,53.84 89.935,54.57 90.061,55.113C90.01,55.264 89.213,57.273 89.213,57.273C88.912,58.458 89.168,58.999 90.01,58.827L94.611,59.102L94.187,57.83C94.143,57.862 93.92,58.098 93.578,58.065C88.969,58.975 90.1,57.081 90.1,57.081C90.133,57.396 90.756,55.344 90.756,55.344C90.951,54.818 90.369,54.11 90.369,54.11C90.332,53.95 89.148,52.63 89.148,52.63L88.596,52.953C88.596,52.953 89.029,53.634 89.135,53.84" style="fill:rgb(0,55,108);fill-rule:nonzero;"/>
    </g>
    <g transform="matrix(1,0,0,1,0,19.243)">
        <path d="M91.31,57.437C91.754,56.842 92.051,56.418 92.197,56.164C92.785,54.867 91.234,54.236 91.234,54.236C91.025,54.099 90.309,54.119 90.309,54.119L89.498,53.656C89.592,53.773 89.113,53.271 89.113,53.271C89.113,53.271 91.1,53.43 91.621,53.628C93.17,54.705 93.426,55.698 92.314,56.78L91.928,57.53L91.621,58.486L90.951,58.462L91.31,57.437" style="fill:rgb(0,55,108);fill-rule:nonzero;"/>
    </g>
    <g transform="matrix(1,0,0,1,0,36.054)">
        <path d="M91.873,48.487L91.873,48.178L92.066,47.215L92.182,46.52L92.221,46.25L92.221,46.057L92.414,46.212L92.529,46.52L92.607,46.829L92.607,47.06L92.568,47.292L92.414,47.716C92.414,47.716 92.209,47.935 92.336,48.564C92.35,48.63 92.453,48.85 92.453,48.85L92.182,48.889C92.182,48.889 92.027,48.812 91.99,48.735C91.951,48.658 91.873,48.564 91.873,48.487" style="fill:rgb(0,55,108);fill-rule:nonzero;"/>
    </g>
    <g transform="matrix(1,0,0,1,0,26.632)">
        <path d="M90.947,58.349L90.756,58.195L90.562,57.909L90.484,57.717L90.484,57.523L90.562,57.292L90.639,56.906L90.756,56.443L90.793,55.903L90.717,55.517L90.447,55.055L90.139,54.785L89.752,54.438L89.174,54.13L88.518,53.821L88.154,53.628L87.576,53.319L86.844,52.779L86.457,52.393L86.188,51.97L86.033,51.43L85.996,50.851L86.111,50.389L86.303,49.909L86.496,49.485L86.65,49.137L86.689,48.366L86.728,48.097L86.611,47.556L86.535,47.209L86.457,46.977C86.457,46.977 86.268,46.341 86.383,46.224C86.5,46.109 87.086,45.996 87.021,45.998C86.6,45.941 87.812,46.112 87.576,46.283C87.648,46.4 87.615,46.785 87.615,46.785L87.615,47.248L87.5,47.749L87.383,48.174L87.268,48.675L87.152,49.06L86.998,49.485L86.883,49.871L86.805,50.195L86.65,50.773L86.611,51.313L86.766,51.892L87.037,52.355L87.383,52.702L87.809,52.895L88.441,53.242L89.098,53.512C89.098,53.512 89.443,53.667 89.56,53.744C89.676,53.821 90.33,54.091 90.33,54.091L90.639,54.361L90.986,54.785L91.256,55.133L91.334,55.595L91.295,56.405L91.141,57.138L91.141,57.794L91.219,58.195L91.141,58.427L90.947,58.349" style="fill:rgb(0,55,108);"/>
    </g>
    <g transform="matrix(1,0,0,1,0,26.767)">
        <path d="M83.41,47.074L83.41,47.46L83.334,48.424L82.602,50.677C82.451,51.485 82.527,52.115 82.832,52.567L83.488,53.724L83.719,54.148C83.719,54.148 84.264,55.851 83.527,56.27C82.41,57.529 82.06,56.077 82.06,56.077L81.521,55.036L81.174,53.879C81.107,53.587 80.48,52.76 80.48,52.76L80.154,52.375L79.846,52.104L79.422,51.603L79.074,51.334L78.844,51.178C78.844,51.178 78.611,51.063 78.535,51.063C78.457,51.063 78.227,51.14 78.227,51.14C78.227,51.14 78.033,51.334 78.072,51.41C78.111,51.488 78.227,51.757 78.227,51.757L78.496,51.912L79.037,52.181L79.461,52.529L79.963,53.146L80.326,53.686L80.75,54.766L80.98,55.576L81.328,56.308L81.844,57.147C82.379,57.81 83.443,57.4 83.521,57.4C83.598,57.4 83.951,57.119 83.951,57.119C83.951,57.119 84.301,57.22 84.377,57.066C84.455,56.912 84.529,56.039 84.529,56.039L84.568,55.382L84.529,54.92C84.551,54.651 84.26,53.879 84.26,53.879L83.373,52.375C82.934,51.378 83.373,50.292 83.373,50.292L83.951,48.81L84.144,48.231L84.375,47.228L84.375,46.959C84.168,46.423 83.604,46.688 83.527,46.727C83.449,46.765 83.41,47.074 83.41,47.074" style="fill:rgb(0,55,108);fill-rule:nonzero;"/>
    </g>
    <g transform="matrix(1,0,0,1,0,34.403)">
        <path d="M84.414,49.274L84.299,49.66L84.144,49.968L83.951,50.199L83.719,50.448L83.295,50.794C82.178,51.373 81.406,50.949 81.406,50.949C81.455,50.998 80.789,50.486 80.789,50.486L79.307,48.31L78.729,47.423L77.803,46.381C76.482,45.378 75.836,46.613 75.836,46.613L75.643,46.921L76.375,45.224C77.369,45.351 78.535,46.15 78.535,46.15L80.865,49.699L81.482,50.448C82.389,50.719 82.793,50.239 82.793,50.239C82.793,50.239 82.955,50.091 83.102,49.93C83.242,49.777 83.643,49.699 83.643,49.699C83.643,49.699 83.873,49.505 83.951,49.467C84.027,49.428 84.414,49.274 84.414,49.274" style="fill:rgb(0,55,108);"/>
    </g>
    <g transform="matrix(1,0,0,1,0,24.84)">
        <path d="M81.338,48.201L81.35,48.759C81.594,49.038 81.521,49.232 81.521,49.232C81.559,49.235 81.289,49.503 81.289,49.503L80.904,49.927L80.557,50.544L80.326,51.123L80.248,51.663C80.213,52.5 80.746,53.598 80.746,53.598L81.441,54.669C81.937,55.623 81.748,56.503 81.748,56.503L81.598,57.194L81.984,57.966L82.123,58.215C82.123,58.215 82.215,57.811 82.254,57.734C82.293,57.657 82.361,56.141 82.361,56.141C82.416,55.596 82.176,54.842 82.176,54.842C81.135,53.311 80.943,52.604 80.943,52.604C80.709,51.768 80.793,51.32 81.059,51.007L81.598,50.274L81.906,49.889L82.254,49.58C82.254,49.58 82.369,49.464 82.484,49.309C82.602,49.155 82.717,49.001 82.717,49.001L82.793,48.769C82.793,48.769 82.756,48.461 82.562,48.385C82.369,48.307 82.176,48.153 82.176,48.153L81.732,47.945L81.338,48.201" style="fill:rgb(0,55,108);fill-rule:nonzero;"/>
    </g>
    <g transform="matrix(1,0,0,1,0,41.237)">
        <path d="M80.949,45.664C80.98,45.664 80.697,45.611 80.697,45.611L80.221,45.627C79.687,45.412 79.283,45.596 79.283,45.596L78.314,46.346L77.752,46.815L77.377,47.221C77.076,47.554 76.83,47.383 76.83,47.383L76.158,46.909L76.377,46.815L76.816,46.79L77.826,46.108L78.783,45.19L79.002,45.002C79.019,43.946 78.252,44.221 78.252,44.221L78.064,44.377L77.877,44.69C77.877,44.69 77.689,44.815 77.564,44.721C77.439,44.627 77.408,44.44 77.408,44.44C77.408,44.44 77.553,44.021 77.935,43.789C78.371,43.625 78.721,43.627 78.721,43.627L78.689,43.377C78.439,42.764 77.506,42.691 77.506,42.691C76.086,42.75 76.158,43.596 76.158,43.596L76.039,43.987L75.541,42.514L76.189,42.534C76.189,42.534 76.965,42.261 77.027,42.261C77.09,42.261 77.25,42.209 77.785,42.22C78.336,42.268 79.127,43.252 79.127,43.252L79.752,44.659C79.805,44.832 79.971,44.94 79.971,44.94L80.596,45.315C80.596,45.315 80.918,45.664 80.949,45.664" style="fill:rgb(0,55,108);"/>
    </g>
    <g transform="matrix(1,0,0,1,0,28.596)">
        <path d="M84.588,57.209C85.559,54.893 86,54.953 85.627,52.112C85.67,52.004 84.096,50.018 84.096,50.018C83.957,49.821 83.971,49.143 83.971,49.143C84.092,48.315 84.658,47.518 84.658,47.518C84.844,47.352 85.033,46.706 85.033,46.706L85.189,45.55L85.189,45.3L85.891,45.034C85.891,45.034 85.727,47.696 85.439,47.925C84.822,49.046 84.76,49.91 85.252,50.518L85.908,51.393C86.01,51.485 86.283,51.487 86.283,51.487L87.346,52.331L88.596,53.456L89.408,54.362C89.959,55.3 89.762,56.167 89.762,56.167C89.621,56.198 89.365,56.118 89.365,56.118L89.346,55.331C89.318,54.834 88.814,54.331 88.814,54.331L87.805,53.3L86.596,52.362L86.408,52.3L86.377,52.581L86.502,52.8L86.814,53.175L88.437,55.434L88.844,56.142L87.754,56.092L87.689,55.675C87.605,54.76 86.471,53.675 86.471,53.675L86.377,54.206L86.252,55.612L86.408,56.331C86.408,56.331 86.453,57.37 86.422,57.307C86.391,57.245 84.588,57.209 84.588,57.209" style="fill:rgb(0,55,108);fill-rule:nonzero;"/>
    </g>
    <g transform="matrix(1,0,0,1,0,14.055)">
        <path d="M81.408,59.559L81.785,59.883C87.059,60.229 88.299,58.816 88.299,58.816C88.744,58.544 89.297,57.699 89.297,57.699L89.877,57.466L89.814,56.716L89.195,56.963L88.627,57.059L88.252,56.997L88.127,57.653C87.928,58.494 83.502,59.278 83.502,59.278L82.814,59.247L82.221,59.247L81.783,59.372L81.408,59.559" style="fill:rgb(0,55,108);fill-rule:nonzero;"/>
    </g>
    <g transform="matrix(1,0,0,1,0,12.414)">
        <path d="M81.971,60.732C81.971,60.732 82.002,60.357 82.033,60.294C82.064,60.232 82.221,60.044 82.221,60.044C84.637,60.061 88.096,58.825 88.096,58.825C88.596,58.772 88.596,58.638 88.596,58.638C89.039,57.963 88.697,57.854 88.697,57.854L87.939,58.107C85.381,59.49 81.588,59.614 81.588,59.614L81.439,59.95L81.471,60.388L81.971,60.732" style="fill:rgb(0,55,108);fill-rule:nonzero;"/>
    </g>
    <g transform="matrix(1,0,0,1,0,9.167)">
        <path d="M81.564,62.672C81.488,62.391 81.846,62.391 81.846,62.391C83.621,62.365 86.721,61.266 86.783,61.234C86.846,61.202 87.846,60.797 87.846,60.797C88.227,60.486 88.637,60.622 88.637,60.622L88.596,59.921L88.408,59.421C88.408,59.421 88.25,59.161 88.25,59.224C88.25,59.286 87.564,60.141 87.564,60.141C86.719,61.052 83.533,61.641 83.533,61.641L82.908,61.734L81.971,61.734C81.478,61.731 81.461,61.011 81.461,61.011L81.002,61.483L81.189,62.266L81.564,62.672" style="fill:rgb(0,55,108);fill-rule:nonzero;"/>
    </g>
    <g transform="matrix(1,0,0,1,0,6.492)">
        <path d="M88.447,62.122C88.394,61.595 87.455,61.899 87.455,61.899C85.803,63.089 83.025,63.603 83.025,63.603C81.588,63.485 81.377,63.997 81.377,63.997C80.828,63.938 80.689,63.622 80.689,63.622C80.689,63.622 80.533,62.435 80.533,62.372C80.533,62.31 80.377,62.091 80.377,62.091L80.758,62.208L81.439,62.94C83.732,63.053 84.658,61.779 84.658,61.779C85.9,61.315 86.311,61.169 86.658,60.747C86.818,60.553 86.971,60.591 87.033,60.56C87.096,60.529 88.25,60.511 88.25,60.511L88.447,62.122" style="fill:rgb(0,55,108);"/>
    </g>
    <g transform="matrix(1,0,0,1,0,0.88499)">
        <path d="M71.346,64.729C71.346,64.729 72.066,64.181 72.127,64.104C72.18,64.037 72.377,63.823 72.439,63.761C72.502,63.698 72.814,63.479 72.814,63.479C72.992,63.509 73.658,63.479 73.658,63.479C73.668,63.494 73.769,63.674 73.93,63.791C74.082,63.904 74.314,64.167 74.314,64.167L74.721,64.448C74.721,64.448 75.127,64.729 75.189,64.729C75.252,64.729 75.721,64.886 75.721,64.886L76.127,65.042L76.533,65.292L77.096,65.479L77.533,65.698L78.033,66.073L78.699,66.596L79.09,66.853L79.449,67.091C79.687,67.59 80.752,67.823 80.752,67.823L80.471,67.354L80.314,66.917L80.283,66.386C80.283,66.386 80.221,66.042 80.221,65.979C80.221,65.917 80.127,65.698 80.127,65.698L79.658,65.386L79.262,65.138L78.471,64.979L78.127,64.792L77.541,64.476C77.541,64.476 77.033,64.292 76.971,64.292L76.533,64.292L76.096,64.136C75.02,63.596 74.314,62.792 74.314,62.792L73.939,62.417L73.627,62.323L73.252,62.292L72.721,62.323C72.721,62.323 72.506,62.329 71.408,63.073C71.064,63.386 70.596,63.167 70.596,63.167C70.605,63.096 70.752,63.792 70.752,63.792L71.096,64.417L71.346,64.729" style="fill:rgb(0,55,108);"/>
    </g>
    <g transform="matrix(1,0,0,1,0,3.328)">
        <path d="M84.723,64.995C84.701,64.798 84.221,64.636 84.221,64.636L83.146,64.686L82.271,64.592L81.803,64.437L81.459,64.28L80.896,63.905L80.271,63.374L79.896,63.28L79.49,63.062L79.168,62.677L79.709,62.718C79.709,62.718 80.334,62.749 80.396,62.749C80.459,62.749 80.99,62.78 80.99,62.78C80.99,62.78 81.459,62.905 81.521,62.905C81.584,62.905 81.959,63.03 81.959,63.03L82.49,63.312L83.24,63.654C84.037,64.125 84.615,63.561 84.615,63.561L84.99,63.623C85.258,64.588 86.396,64.343 86.396,64.343C86.287,64.493 84.723,64.995 84.723,64.995" style="fill:rgb(0,55,108);fill-rule:nonzero;"/>
    </g>
    <g transform="matrix(1,0,0,1,0,-34.823)">
        <path d="M76.814,82.999L76.502,82.874L76.127,82.655L75.877,82.467L75.533,82.405L75.189,82.342L74.814,82.124L74.283,81.78L74.004,81.376L73.721,80.905L73.283,80.186L73.033,79.53L72.939,79.186L72.939,78.967L73.064,78.905C73.256,78.918 73.502,79.061 73.502,79.061C73.838,79.194 74.252,79.593 74.252,79.593L74.627,79.905L74.939,80.061L75.627,80.311L76.033,80.436L77.064,80.686C77.676,80.849 78.189,81.124 78.189,81.124C79.213,81.833 79.346,82.624 79.346,82.624L79.502,83.343L79.564,84.03L79.533,84.561L79.471,85.311L79.533,85.717L79.689,86.186L79.783,86.499C79.803,86.723 79.803,86.858 79.783,86.905C79.656,86.918 79.439,86.78 79.439,86.78C79.31,86.682 79.158,86.405 79.158,86.405L78.971,86.092L78.877,85.624L78.846,84.905L78.783,84.311L78.783,83.467C78.881,82.651 78.252,81.78 78.252,81.78L77.846,81.436L77.314,81.186L76.908,81.03L76.064,80.842L75.283,80.718L74.533,80.374L74.189,80.124C73.768,80.073 73.939,80.467 73.939,80.467L74.096,80.842L74.346,81.186C74.945,81.584 75.221,81.592 75.221,81.592C75.221,81.592 76.221,81.624 76.314,81.655C76.408,81.686 76.658,81.78 76.658,81.78L76.971,81.936L77.252,82.155L77.502,82.499L77.533,82.78C77.344,83.177 76.814,82.999 76.814,82.999Z" style="fill:rgb(0,55,108);fill-rule:nonzero;stroke:rgb(0,55,108);stroke-width:0.14px;"/>
    </g>
    <g transform="matrix(1,0,0,1,0,-5.67701)">
        <path d="M81.209,68.147C81.055,68.38 81.266,68.548 81.584,68.615C81.58,68.656 82.178,68.772 82.178,68.772C82.336,68.779 82.49,68.584 82.459,68.491C82.428,68.397 82.271,68.303 82.271,68.303C81.805,67.898 81.209,68.147 81.209,68.147Z" style="fill:rgb(0,55,108);fill-rule:nonzero;stroke:rgb(0,55,108);stroke-width:0.14px;"/>
    </g>
    <g transform="matrix(1,0,0,1,0,-18.944)">
        <path d="M67.002,73.963C66.893,73.991 66.721,73.839 66.721,73.839C66.533,73.561 66.658,73.245 66.658,73.245C66.678,73.202 66.789,73.083 66.846,73.057C66.908,73.03 67.064,72.963 67.127,72.963C67.471,72.903 67.635,72.946 67.908,73.057C67.967,73.071 68.221,73.213 68.221,73.213L68.533,73.464C68.701,73.634 68.785,73.759 68.783,73.839C68.783,73.839 68.826,74.715 68.721,74.807C68.387,75.251 68.021,75.522 67.627,75.62L66.189,75.963L65.783,76.12L65.564,76.401L65.296,77.041C65.296,77.041 65.054,75.592 64.991,75.561C64.929,75.53 64.814,74.682 64.814,74.682L65.783,75.463C67.269,75.471 68.033,74.713 68.033,74.713L68.127,74.307C68.119,74.083 68.109,73.958 68.096,73.932C68.096,73.932 67.902,73.607 67.377,73.776C67.236,73.884 67.002,73.963 67.002,73.963Z" style="fill:rgb(0,55,108);fill-rule:nonzero;stroke:rgb(0,55,108);stroke-width:0.14px;"/>
    </g>
    <g transform="matrix(1,0,0,1,0,-27.661)">
        <path d="M60.171,65.775C60.404,65.575 61.536,65.067 61.536,65.067C61.533,65.036 62.954,64.611 62.954,64.611C62.954,64.611 63.716,64.392 63.915,64.358C66.731,63.922 68.894,63.744 70.404,63.825C73.336,63.811 75.816,64.511 75.816,64.511C77.264,64.82 80.273,65.977 80.273,65.977C80.859,66.202 82.83,67.243 83.867,68.862C83.943,68.983 86.043,72.358 86.043,72.358C86.674,73.675 87.471,76.602 87.471,76.602L87.865,78.28L88.375,80.152C89.133,83.015 89.285,84.61 89.285,84.61L89.441,85.925L89.699,88.288L89.791,89.522L90.045,91.497C90.096,91.72 89.437,93.824 89.437,93.824L88.678,94.837L87.967,95.039L87.967,94.635L88.779,93.572C88.865,93.557 89.336,92.559 89.336,92.458C89.336,92.356 89.184,88.358 89.184,88.358L89.084,86.179L88.943,84.812C88.984,84.653 88.728,83.041 88.728,83.041C88.736,82.946 88.375,81.977 88.375,81.977L88.018,80.713L87.662,79.495L87.289,78.004L87.061,76.643C87.031,76.157 86.246,73.877 86.246,73.877C85.221,71.524 83.209,69.015 83.209,69.015L81.943,67.851C75.002,63.622 66.976,64.511 66.703,64.511C66.703,64.511 65.114,64.698 63.561,64.966C62.113,65.311 61.278,65.723 61.278,65.723C60.904,65.95 60.321,66.028 60.321,66.028C60.04,66.012 60.171,65.775 60.171,65.775" style="fill:rgb(0,55,108);fill-rule:nonzero;"/>
    </g>
    <g transform="matrix(1,0,0,1,0,-35.638)">
        <path d="M72.439,74.865C72.584,74.929 72.853,75.081 73.25,75.322C74.891,76.364 76.209,77.008 77.504,77.416C77.605,77.467 80.039,78.49 80.643,79.876C81.211,80.703 81.451,81.499 81.451,81.499C81.437,81.354 81.807,82.663 81.807,82.663L82.262,85.042L82.564,85.903C82.902,86.914 83.629,87.522 83.629,87.522L85.551,89.196C85.551,89.196 86.662,90.419 86.598,91.462C86.662,91.673 86.414,91.773 86.311,91.423C86.189,91.013 86.158,90.933 86.027,90.689C85.793,90.248 84.842,89.398 84.842,89.398L83.728,88.589L82.615,87.724L81.857,87.067C81.389,86.22 81.502,85.497 81.502,85.497L81.553,84.384C81.682,83.828 81.098,81.954 81.098,81.954L80.879,81.435L80.693,80.994L80.338,80.231C80.285,80.188 80.088,80.023 79.627,79.573C78.521,78.279 76.488,77.701 76.488,77.701C75.611,77.517 74.963,77.32 74.312,76.992C72.301,75.771 72.439,74.865 72.439,74.865Z" style="fill:rgb(0,55,108);fill-rule:nonzero;stroke:rgb(0,55,108);stroke-width:0.14px;"/>
    </g>
    <g transform="matrix(1,0,0,1,0,-46.308)">
        <path d="M60.612,86.491C61.128,86.209 62.903,85.789 62.903,85.789C63.019,85.725 64.628,85.486 64.729,85.486C64.83,85.486 67.715,85.081 67.715,85.081C68.973,84.991 69.941,85.384 69.941,85.384C70.299,85.484 70.6,85.738 70.6,85.738L72.219,87.003L73.842,88.117C73.842,88.117 74.805,88.623 74.955,88.673C75.107,88.724 77.131,89.433 77.334,89.484C77.537,89.535 79.055,90.243 79.055,90.243C79.055,90.243 81.197,91.467 81.016,92.317C80.113,91.365 78.498,90.699 78.498,90.699C74.088,89.225 73.437,88.522 73.437,88.522L72.219,87.712L71.156,87.003C69.76,85.886 67.81,85.8 67.81,85.8C65.886,85.633 62.565,86.272 62.565,86.272C61.243,86.638 60.612,86.491 60.612,86.491" style="fill:rgb(0,55,108);fill-rule:nonzero;"/>
    </g>
    <g transform="matrix(1,0,0,1,0,-40.826)">
        <path d="M75.158,79.217C75.057,79.221 75.853,79.279 76.525,79.446C76.727,79.497 77.721,79.862 77.84,79.902C77.935,79.933 79.641,80.673 79.865,80.812C80.896,81.403 81.596,81.889 81.994,82.23C83.148,83.219 83.428,83.873 83.428,83.873C84.24,84.955 84.863,85.986 85.283,87.497L85.639,88.712L85.84,89.775L86.144,91.547L86.396,92.609L85.385,91.191L85.016,90.713L84.727,90.23L84.424,89.319C83.408,84.82 82.602,83.849 82.602,83.849C81.576,82.299 80.018,81.42 80.018,81.42C79.697,81.203 77.738,80.307 77.738,80.307C77.738,80.307 76.109,79.701 75.918,79.648C74.752,79.336 75.158,79.217 75.158,79.217" style="fill:rgb(0,55,108);"/>
    </g>
    <g transform="matrix(1,0,0,1,0,-32.338)">
        <path d="M64.88,76.372C65.894,76.944 66.551,77.03 66.551,77.03C67.355,77.033 68.271,77.236 68.271,77.236C68.271,77.236 68.879,77.54 68.98,77.844C69.082,78.148 69.082,78.299 69.082,78.299L69.133,79.261C69.133,79.261 69.334,80.375 69.486,80.425C69.639,80.476 69.627,80.758 71.764,81.285C71.861,81.31 72.865,81.732 72.982,81.893C73.271,82.118 73.457,82.32 73.539,82.5C74.291,83.735 73.791,86.401 73.791,86.401L73.893,86.957C74.85,87.784 75.361,87.666 75.361,87.666L75.361,87.362C75.361,87.262 75.107,86.755 75.107,86.755L74.146,82.449C73.732,81.643 71.916,80.881 71.916,80.881C70.853,80.613 70.803,79.818 70.803,79.818L70.549,78.755L70.246,77.641C69.973,76.229 68.727,76.272 68.727,76.272L67.41,76.272L66.754,76.221L66.196,76.119L65.336,75.766C65.336,75.766 64.379,75.554 64.88,76.372" style="fill:rgb(0,55,108);fill-rule:nonzero;"/>
    </g>
    <g transform="matrix(1,0,0,1,0,-37.786)">
        <path d="M65.026,83.921L65.64,84.05L66.095,84.202C66.511,84.22 66.601,84.101 66.601,84.101L67.512,83.797L67.816,83.797L68.424,83.897C69.609,84.178 69.689,84.91 69.689,84.91L68.98,84.708L68.322,84.657L67.31,84.606L66.601,84.657C65.605,84.989 65.026,83.921 65.026,83.921" style="fill:rgb(0,55,108);fill-rule:nonzero;"/>
    </g>
    <g transform="matrix(1,0,0,1,0,-33.777)">
        <path d="M64.679,75.789C65.561,76.976 66.495,76.275 66.45,76.345L67.918,76.042C68.314,76.013 68.695,75.996 68.807,76.009C69.471,76.054 69.738,76.164 69.904,76.215C70.359,76.347 70.723,76.399 71.309,77.306C71.299,77.222 71.814,78.268 71.814,78.268L72.225,79.335C72.855,81.736 75.26,82.625 75.26,82.625L76.678,83.029L77.133,83.232C77.133,83.232 77.686,83.655 77.791,83.94C77.84,84.075 78.144,84.649 78.144,84.649L78.449,85.56L78.904,86.829L79.309,87.183L79.814,87.588L80.275,88.195C80.103,88.341 80.174,88.701 80.174,88.701C80.174,88.758 79.715,88.853 79.715,88.853L79.227,88.988C78.996,88.89 78.853,88.499 78.853,88.499L78.701,87.74L78.045,85.56C77.545,84.28 76.627,84.042 76.627,84.042L75.361,83.434L73.641,82.472C72.387,81.881 71.715,79.689 71.715,79.689C71.187,77.488 70.195,77.004 70.195,77.004C69.672,76.461 67.074,76.767 67.074,76.767L66.06,77.101C66.173,77.05 64.477,77.661 64.477,77.661C64.477,77.661 64.527,76.851 64.527,76.75C64.527,76.648 64.679,75.789 64.679,75.789" style="fill:rgb(0,55,108);"/>
    </g>
    <g transform="matrix(1,0,0,1,0,-15.583)">
        <path d="M75.41,66.703C76.394,67.906 75.969,70.153 75.969,70.153L76.17,71.216L76.828,72.178C76.828,72.178 77.992,73.493 78.043,73.595C79.393,75.128 79.07,76.587 78.549,77.749L78.043,78.356L77.941,78.558L77.891,79.874L78.094,80.229C78.432,80.439 79.611,80.481 79.611,80.481C79.611,80.481 81.133,80.481 81.234,80.532C81.336,80.583 81.943,80.431 81.791,80.329C81.641,80.229 81.387,80.127 81.387,80.127C81.387,80.127 80.678,79.57 80.627,79.419C80.576,79.267 80.477,78.406 80.477,78.306C80.477,78.204 80.324,77.85 80.324,77.85C80.283,77.767 80.037,77.38 79.865,77.9C79.896,77.802 79.764,78.457 79.764,78.457L79.611,79.064L79.055,79.317C78.984,79.331 78.9,79.314 78.803,79.267C78.699,79.19 78.752,78.812 78.752,78.812C78.822,78.628 79.156,78.153 79.156,78.153L79.359,77.495L79.611,76.584L79.713,75.519L79.461,74.606L79.156,73.999L77.941,72.38L77.385,71.62L76.828,70.861L76.574,69.95L76.52,67.734C76.551,67.062 75.867,66.304 75.867,66.304C75.098,66 75.41,66.703 75.41,66.703" style="fill:rgb(0,55,108);"/>
    </g>
    <g transform="matrix(1,0,0,1,0,-40.164)">
        <path d="M59.83,79.371L61.337,78.711L63.207,78.278C67.713,77.594 70.902,77.873 70.902,77.873C73.547,78.339 75.26,79.189 75.26,79.189C75.26,79.189 79.74,81.08 81.437,83.086C81.947,83.777 82.146,84.402 82.146,84.402L83.41,88.303C83.805,89.514 84.221,90.023 84.221,90.023C84.51,90.408 84.879,90.58 84.879,90.58L85.334,90.783C85.777,90.956 86.144,91.491 86.144,91.491C86.668,92.214 86.65,92.861 86.65,92.861C86.754,92.933 86.65,93.57 86.65,93.57L86.195,93.014L85.301,92.112C83.312,91.009 82.754,88.101 82.754,88.101L82.398,86.582L81.893,85.064C81.344,82.23 73.893,79.24 73.893,79.24C70.758,77.729 66.804,78.228 66.804,78.228C66.325,78.237 65.083,78.43 65.083,78.43L61.841,78.986L60.58,79.262L59.83,79.371" style="fill:rgb(0,55,108);"/>
    </g>
    <g transform="matrix(1,0,0,1,0,-3.33301)">
        <path d="M86.043,71.42C86.236,71.409 86.355,71.207 86.396,70.813L86.549,70.104L86.65,69.193L86.701,68.434L86.803,67.624L86.803,66.966C86.27,65.657 84.475,64.892 84.475,64.892L83.512,64.587L82.803,64.183L82.246,63.673L81.689,63.318L80.982,63.116C80.566,63.09 80.83,62.862 80.83,62.862C80.83,62.862 81.084,62.762 81.285,62.762C81.488,62.762 82.045,62.813 82.197,62.862C82.348,62.913 82.854,63.015 82.854,63.015C82.854,63.015 83.307,63.469 83.613,63.622C84.824,64.228 87.51,66.207 87.51,66.207C87.832,66.407 87.814,67.067 87.814,67.067L87.814,67.726L87.764,68.434L87.611,68.939L87.359,70.053L87.258,70.762C87.258,70.762 87.105,71.015 87.055,71.116C87.004,71.218 86.752,71.471 86.752,71.471L86.346,71.571L86.043,71.42" style="fill:rgb(0,55,108);fill-rule:nonzero;"/>
    </g>
    <g transform="matrix(1,0,0,1,0,-15.428)">
        <path d="M87.764,78.049L87.105,76.936C87.105,76.936 86.418,75.573 85.08,74.928C84.305,74.705 84.139,74.373 84.139,74.373C84.121,74.354 84.119,73.49 84.119,73.49C84.277,72.157 83.107,71.01 83.107,71.01C83.107,71.01 81.689,70.251 81.59,70.201C81.488,70.15 80.143,69.745 80.018,69.695C79.924,69.657 79.004,68.936 79.004,68.936L78.803,68.379L79.207,68.631L80.525,69.289L83.557,70.784C84.248,71.159 84.625,71.618 84.625,71.618C84.762,71.893 85.031,73.136 85.031,73.136C85.08,73.597 85.537,73.895 85.537,73.895C85.76,74.096 87.611,75.819 87.611,75.819C87.949,76.291 87.764,78.049 87.764,78.049Z" style="fill:rgb(0,55,108);stroke:rgb(0,55,108);stroke-width:0.14px;"/>
    </g>
    <g transform="matrix(1,0,0,1,0,-30.623)">
        <path d="M65.435,73.37C65.213,73.02 65.286,72.584 65.286,72.584C65.784,71.707 69.74,72.169 70.145,72.381L71.916,73.343L73.791,74.355C77.033,76.02 79.281,76.539 79.281,76.539C80.369,77.191 80.219,79.875 80.219,79.875L80.273,81.344L80.324,82.203L80.426,82.861C80.48,83.306 80.881,83.574 80.881,83.574L84.879,85.901C84.879,85.901 85.973,86.595 86.094,88.382C86.092,89.056 85.789,89.394 85.789,89.394C85.814,89.541 85.789,89.85 85.789,89.85C85.789,89.85 85.84,89.951 86.195,90.152C86.549,90.355 86.902,90.559 86.902,90.559L86.852,90.103L86.65,89.394L86.6,87.774L86.684,86.572C86.721,86.264 86.535,86.1 86.195,85.901L85.689,85.648L83.664,84.637L82.955,84.231L81.943,83.624L81.285,82.912L80.881,82.152L80.627,81.242L80.525,80.381L80.525,79.673L80.48,78.742L80.426,77.801C80.604,76.347 77.486,75.523 77.486,75.523L75.26,74.76L74.348,74.355L72.779,73.242C72.768,73.164 71.207,72.179 71.207,72.179C69.135,71.064 66.85,71.198 66.85,71.198L65.871,71.278C65.061,71.406 64.628,71.824 64.628,71.824L64.577,72.229C64.577,72.229 64.659,72.617 64.702,72.709C64.763,72.844 64.931,73.09 64.931,73.09L65.435,73.37" style="fill:rgb(0,55,108);fill-rule:nonzero;"/>
    </g>
    <g transform="matrix(1,0,0,1,0,-29.774)">
        <path d="M65.3,77.144C65.39,77.208 68.019,79.316 68.019,79.316C69.012,80.231 70.535,80.503 70.535,80.503C70.857,80.579 71.769,80.535 71.769,80.535C72.676,80.769 72.629,81.925 72.629,81.925C72.906,83.616 72.117,83.635 72.117,83.635C71.894,83.769 71.713,83.839 71.713,83.839C71.713,83.839 71.309,84.09 71.662,84.141C72.016,84.192 73.336,84.041 73.336,84.041L72.881,80.848C72.535,79.597 70.785,79.738 70.785,79.738C70.394,79.816 69.863,79.753 69.863,79.753C68.691,79.457 67.957,78.738 67.957,78.738L65.44,76.847C64.714,76.582 65.3,77.144 65.3,77.144" style="fill:rgb(0,55,108);fill-rule:nonzero;"/>
    </g>
    <g transform="matrix(1,0,0,1,0,-2.98001)">
        <path d="M85.316,70.461L85.435,69.65L85.73,68.585C85.762,68.445 85.637,68.171 85.637,68.171C85.637,68.124 84.934,67.25 84.934,67.25C84.848,67.086 84.902,66.492 84.902,66.492C84.916,66.181 84.738,65.546 84.373,64.588C83.941,63.89 83.209,63.677 83.209,63.677C83.209,63.677 82.803,63.519 82.803,63.573C82.721,63.601 82.719,63.682 82.801,63.817C83.832,64.859 84.018,66.056 84.018,66.056C84.066,66.242 84.055,66.203 84.105,66.304C84.156,66.405 84.271,66.765 84.271,66.765L84.475,67.271L85.031,68.384C85.254,68.678 84.727,69.397 84.727,69.397L84.777,70.105L85.316,70.461" style="fill:rgb(0,55,108);fill-rule:nonzero;"/>
    </g>
    <g transform="matrix(1,0,0,1,0,1.28299)">
        <path d="M85.232,66.449L85.182,65.691C85.182,65.691 85.092,64.984 84.98,64.88C83.215,63.268 81.133,63.312 81.133,63.312L80.779,63.412L80.949,63.666C85.105,64.579 84.629,65.65 84.629,65.65C84.811,65.867 84.727,65.994 84.727,65.994L84.98,66.298L85.232,66.449" style="fill:rgb(0,55,108);fill-rule:nonzero;"/>
    </g>
    <g transform="matrix(1,0,0,1,0,-3.14101)">
        <path d="M79.41,67.584C79.41,67.585 80.758,67.426 80.871,67.395C82.912,66.818 84.17,67.229 84.17,67.229C84.418,67.239 84.652,67.598 84.652,67.598L84.793,67.434L84.777,67.128C84.746,66.653 83.832,66.543 83.832,66.543L81.598,66.661L80.627,66.825L79.105,67.229L79.41,67.584" style="fill:rgb(0,55,108);fill-rule:nonzero;"/>
    </g>
    <g transform="matrix(1,0,0,1,0,-19.446)">
        <path d="M77.213,71.012L77.232,71.634C77.232,71.634 77.129,73.566 77.131,73.358C77.119,73.321 77.176,74.426 77.588,74.775C77.832,74.926 78.357,75.387 78.357,75.387C78.672,75.611 79.187,76.537 79.187,76.537C79.187,76.537 79.646,78.048 79.561,78.167L79.41,78.975L79.643,79.434C79.643,79.434 80.477,79.28 80.576,79.28C80.678,79.28 80.982,79.178 80.982,79.178L81.033,78.926C81.033,78.926 80.779,78.774 80.678,78.824C80.576,78.875 80.426,78.926 80.426,78.926L80.273,78.267C80.266,77.985 79.695,76.878 79.695,76.878L79.561,76.496L79.258,75.534L78.65,74.675C78.207,74.504 77.891,73.864 77.891,73.864C77.711,73.562 77.639,71.583 77.639,71.583C77.6,71.378 77.213,71.012 77.213,71.012" style="fill:rgb(0,55,108);fill-rule:nonzero;"/>
    </g>
    <g transform="matrix(1,0,0,1,0,-16.295)">
        <path d="M83.107,76.686C83.285,76.804 82.904,76.078 82.904,76.078L83.107,74.408C82.973,72.589 81.133,71.422 81.133,71.422L80.168,71.118L79.611,71.169C79.031,71.652 78.346,71.422 78.346,71.422C78.346,71.422 76.98,71.726 76.727,71.624C76.475,71.524 76.221,71.219 76.221,71.219C76.221,71.219 76.072,70.774 76.018,70.916C75.908,71.209 75.107,70.916 75.107,70.916L73.641,70.309L73.488,70.36L72.375,70.511L72.324,70.713L72.576,70.815C72.576,70.815 75.004,71.588 75.363,72.979C75.402,73.134 75.969,73.143 76.068,73.143C76.17,73.143 77.283,72.737 77.283,72.737C77.283,72.737 77.678,71.704 78.549,72.232C78.678,72.311 79.814,72.181 79.814,72.181L80.83,72.332C82.035,72.666 82.246,74.762 82.246,74.762C82.348,74.983 81.994,75.471 81.994,75.471C81.994,75.471 82.58,76.548 82.652,76.635C82.945,76.986 83.107,76.686 83.107,76.686" style="fill:rgb(0,55,108);fill-rule:nonzero;"/>
    </g>
    <g transform="matrix(1,0,0,1,0,-28.91)">
        <path d="M64.923,81.46L65.277,81.207L65.581,80.903C65.581,80.903 65.935,80.498 66.087,80.498L66.593,80.498C66.593,80.498 67.492,80.663 67.644,80.714C67.797,80.764 68.566,81.054 68.566,81.054L69.58,81.258L69.984,81.308L70.643,81.666L70.996,82.121L71.148,82.426L71.199,82.83L71.502,83.084L72.164,83.235L71.857,82.324L71.352,81.156L70.996,80.852L70.592,80.65C68.195,80.223 68.06,79.739 68.06,79.739L67.809,79.486L66.796,78.575L65.45,77.193C65.372,77.073 64.71,76.675 64.71,76.675C64.485,76.736 64.62,76.955 64.62,76.955L65.784,77.918C65.784,77.918 66.593,79.132 66.796,79.284C66.998,79.435 67.1,79.739 67.1,79.739C66.943,80.016 66.644,79.739 66.644,79.739L66.341,79.334L64.655,77.733C64.044,77.378 64.468,78.018 64.468,78.018C64.54,78.141 65.581,79.385 65.581,79.385L65.683,79.941L65.429,80.144L65.075,79.992L64.872,80.094L64.569,80.701L64.923,81.46" style="fill:rgb(0,55,108);fill-rule:nonzero;"/>
    </g>
    <g transform="matrix(1,0,0,1,0,-11.979)">
        <path d="M77.435,77.232L77.283,76.827L77.232,76.372C77.316,75.991 77.891,76.219 77.891,76.219C77.891,76.219 78.195,76.169 78.297,76.169C78.396,76.169 78.381,74.868 78.381,74.868L77.639,74.853L76.98,74.904C76.98,74.904 76.619,74.446 76.828,74.448C78.191,74.46 78.246,72.521 78.246,72.521C78.176,72.069 77.891,72.319 77.891,72.319C77.566,73.881 76.424,74.094 76.424,74.094L75.816,74.145L75.41,74.044L75.209,73.84C76.691,73.053 76.93,72.319 76.93,72.319C77.129,72.147 77.082,71.155 77.082,71.155L76.98,70.649C76.801,70.475 76.625,70.7 76.625,70.7L76.625,71.104C76.635,71.278 76.617,71.463 76.574,71.661C75.566,73.741 74.652,73.031 74.652,73.031L74.449,72.829C76.16,72.6 75.867,69.181 75.867,69.181L75.816,68.725L75.613,68.523L75.379,68.549C75.566,69.006 75.613,70.092 75.613,70.092C75.676,70.069 75.144,72.319 73.74,72.015C73.643,71.994 73.184,71.915 73.234,71.813C73.285,71.711 73.234,71.508 73.387,71.459C73.539,71.408 73.842,71.256 73.943,71.206C74.045,71.155 74.5,70.7 74.5,70.7L74.703,70.244L74.754,69.636L74.703,69.383C74.65,69.322 74.5,69.383 74.5,69.383L74.398,69.586C74.244,71.004 73.033,71.155 73.033,71.155L72.477,71.408L72.168,71.408L72.016,71.307C73.254,70.428 73.336,69.485 73.336,69.485L73.387,68.928C73.387,68.672 73.369,68.555 73.336,68.574C73.316,68.531 73.133,68.574 73.133,68.574C73.137,68.537 72.982,68.776 72.982,68.776L72.729,69.586C72.395,70.506 71.51,70.902 71.51,70.902C71.035,70.928 71.258,70.547 71.258,70.547C72.379,69.412 72.273,69.029 72.273,69.029L72.219,68.169C72.103,68.044 71.967,68.169 71.967,68.169L71.814,68.623C71.676,69.553 70.902,70.294 70.701,70.294C70.498,70.294 70.346,70.395 70.346,70.395L70.246,70.143L70.6,69.94L70.902,69.586L71.156,69.13C71.197,68.836 71.215,68.633 71.207,68.523C71.271,68.277 71.307,68.142 71.309,68.118C71.219,68.032 71.055,68.067 71.055,68.067C71.012,68.051 70.953,68.321 70.953,68.321C70.769,68.87 70.551,69.241 70.297,69.434C70.297,69.434 69.9,69.396 70.043,69.282C70.41,68.991 70.396,68.067 70.396,68.067L70.346,66.802L70.498,66.499L71.309,66.295L72.477,66.397L72.779,66.144L72.273,65.739L71.207,65.587L70.701,65.79L70.297,65.84L69.738,65.79L69.537,65.689L68.424,64.98C68.184,64.937 68.031,64.937 67.967,64.98C67.967,64.98 67.74,65.21 68.068,65.335C68.211,65.404 70.797,66.373 69.537,69.08C69.506,69.202 69.232,69.383 69.232,69.383C69.135,69.465 68.424,69.485 68.424,69.485C68.35,69.493 67.867,69.282 67.867,69.282L67.41,68.827L67.41,68.372L66.095,68.574L65.994,68.877L66.044,69.08C66.044,69.08 66.452,69.469 66.5,69.485C66.654,69.553 66.854,70.041 66.854,70.041C66.867,70.038 66.854,70.952 66.854,70.952L66.77,73.788C66.775,74.051 67.251,74.926 67.251,74.926C67.251,74.935 67.682,74.873 67.682,74.873C67.41,74.359 67.224,73.647 67.26,73.182L67.461,71.661C67.461,71.661 67.664,71.053 67.664,70.952C67.664,70.851 67.777,70.102 67.777,70.102C67.777,70.102 67.816,69.94 67.967,69.94C68.119,69.94 68.221,69.991 68.221,69.991C68.295,70.029 68.322,70.143 68.322,70.143C68.336,70.159 68.271,71.256 68.271,71.256C67.613,73.647 67.965,74.859 67.965,74.859C68.002,74.846 68.635,74.785 68.635,74.785C68.248,74.123 68.221,73.436 68.221,73.436L68.373,72.676L68.576,71.915L68.727,70.75L68.828,70.547L69.031,70.547L69.082,71.053L69.082,72.319L68.926,73.272C68.879,74.116 69.088,74.748 69.088,74.748L69.519,74.71L69.385,74.145L69.334,73.385C69.334,73.385 69.385,72.782 69.385,72.676C69.385,72.572 69.639,71.661 69.639,71.661L69.84,71.357C70.254,71.225 70.297,71.711 70.297,71.711L69.891,73.79C69.891,73.79 69.799,74.748 69.84,74.853C69.894,74.991 70.246,75.561 70.246,75.561C70.322,75.677 70.447,75.46 70.447,75.46C70.441,75.551 70.6,73.182 70.6,73.182C70.6,73.182 70.785,72.881 71.113,73.053C71.67,73.079 71.814,72.471 71.814,72.471C71.815,72.471 72.551,71.754 72.576,73.131C72.582,73.381 72.176,73.913 72.176,73.913C71.769,74.366 72.488,74.147 72.488,74.147L73.033,73.942C73.033,73.942 73.437,73.84 73.539,73.84C73.641,73.84 73.74,73.84 73.943,73.942C74.146,74.044 74.248,74.246 74.248,74.246L73.893,74.954C73.893,74.954 73.81,75.551 73.893,75.713C74.082,76.085 74.449,75.713 74.449,75.713C74.449,75.713 74.348,75.308 74.398,75.208C74.449,75.106 74.551,74.853 74.551,74.853C74.691,74.616 75.26,74.651 75.26,74.651C76.285,75.116 76.475,76.776 76.475,76.776C76.582,77.006 76.221,77.08 76.221,77.08L76.424,77.485L77.992,78.042L77.435,77.232Z" style="fill:rgb(0,55,108);stroke:rgb(0,55,108);stroke-width:0.14px;"/>
    </g>
    <g transform="matrix(1,0,0,1,0,-13.322)">
        <path d="M86.506,65.545L86.953,66.323L87.611,68.449L88.018,73.763L88.117,75.892L88.117,77.613C87.92,78.505 87.611,78.777 87.611,78.777C87.592,78.773 87.41,77.765 87.41,77.765L87.41,75.488L87.309,72.851C87.324,68.178 86.518,66.476 86.518,66.476L86.506,65.545Z" style="fill:rgb(0,55,108);fill-rule:nonzero;stroke:rgb(0,55,108);stroke-width:0.14px;"/>
    </g>
    <g transform="matrix(1,0,0,1,0,-17.203)">
        <path d="M78.953,70.66L79.807,73.144L80.477,74.557L81.084,76.075C81.266,76.292 81.084,76.683 81.084,76.683L81.488,76.986L82.602,77.492C82.602,77.492 82.955,77.543 82.854,77.289C82.754,77.037 82.096,76.277 81.791,76.024C81.488,75.771 81.437,75.771 81.387,75.619C81.336,75.468 80.678,73.291 80.678,73.291L80.168,71.723L79.51,70.811L78.953,70.66" style="fill:rgb(0,55,108);fill-rule:nonzero;"/>
    </g>
    <g transform="matrix(1,0,0,1,0,1.972)">
        <path d="M51.06,95.994L50.156,95.974L50.286,92.483C50.306,90.619 49.7,89.096 49.7,89.096L48.996,87.394L48.292,86.103L47.645,84.694C47.288,84.034 47.242,83.269 47.242,83.269L47.271,82.831C47.29,81.723 46.424,81.779 46.424,81.779L42.769,81.018L40.873,80.854C36.712,80.9 37.339,76.166 37.339,76.166C37.431,75.529 37.867,75.033 37.867,75.033L38.337,74.212C38.632,73.634 37.993,73.065 37.993,73.065L37.495,72.807C37.148,72.645 37.339,71.746 37.339,71.746L37.452,71.412L37.593,70.896C37.62,70.611 37.339,70.338 37.339,70.338C37.108,69.959 37.339,69.105 37.339,69.105L37.398,68.03L37.339,67.503C37.339,67.503 37.302,66.904 37.302,66.963C37.302,67.021 37.279,66.906 37.279,66.906L36.616,66.931C34.553,66.988 34.624,64.942 34.624,64.942C34.718,64.132 35.7,63.13 35.7,63.13L36.693,61.398L37.867,59.678L39.167,57.921C39.604,57.352 39.483,56.16 39.483,56.16L39.47,55.335C39.456,54.289 39.822,53.985 39.822,53.985L40.468,52.928C40.468,52.928 41.064,51.432 41.095,51.382C41.505,50.702 41.774,47.784 41.57,47.503C41.773,47.599 40.038,46.704 39.937,46.303C39.493,43.558 40.233,42.151 40.233,42.151L42.052,40.567L43.407,38.942C45.108,36.351 46.724,36.288 46.724,36.288C47.173,35.176 48.626,34.054 48.626,34.054C48.626,34.054 50.132,33.034 52.87,33.447C53.679,33.468 53.933,34.233 53.933,34.233C53.933,34.233 54.253,36.622 55.419,37.143C56.915,38.138 57.759,37.046 57.759,37.046C58.366,36.77 58.591,37.477 57.769,37.742C57.538,37.787 56.878,37.867 56.878,37.867C54.673,38.325 54.048,36.556 54.048,36.556L53.397,34.915C53.154,33.911 51.872,33.975 51.872,33.975L50.111,34.093C49.71,34.084 49.339,34.162 48.996,34.328C48.499,34.674 47.998,35.502 47.998,35.502L47.704,35.913L47.235,36.458L46.807,36.752L46.278,36.987C46.278,36.987 45.09,37.477 43.851,39.108C43.485,39.794 43.017,40.452 42.522,41.095L41.349,41.975C39.987,43.047 40.304,44.491 40.304,44.491L40.351,45.75C40.388,46.121 41.032,46.481 41.876,46.806C42.222,46.977 42.287,47.393 42.287,47.393L42.347,48.45L42.17,50.386L41.817,51.796L41.29,53.221L40.778,54.196C40.405,54.893 40.526,55.518 40.526,55.518L40.526,56.86C40.555,57.743 39.409,58.637 39.409,58.637L38.454,59.854L37.28,61.868L36.87,62.396C36.167,63.108 35.249,64.756 35.249,64.756C35.292,65.267 34.874,66.192 36.499,66.13C36.792,66.119 37.876,66.011 37.876,66.011C38.762,66.132 39.394,66.509 39.394,66.509C39.819,67.101 40.533,66.909 40.744,66.841C41.089,66.729 41.263,66.678 40.931,65.789C40.864,65.614 40.627,64.974 40.627,64.974L40.765,64.846C40.765,64.846 41.614,66.073 41.677,66.947C40.645,67.603 40.133,67.404 40.133,67.404L39.083,66.978L38.27,66.853C37.579,66.507 37.989,66.729 37.989,66.729C38.427,67.292 38.061,68.787 38.061,68.787L37.962,69.334C37.962,69.334 37.863,69.73 38.251,69.775C38.542,69.808 38.716,69.825 38.796,69.844C38.915,69.873 39.069,69.998 39.114,70.067C39.558,70.742 39.796,70.525 39.796,70.525C39.796,70.525 40.363,70.497 40.544,70.491C40.694,70.486 40.916,71.09 40.447,71.09C39.899,71.128 39.583,71.134 39.583,71.134C39.435,71.132 38.944,70.766 38.944,70.766C37.958,70.34 37.395,72.971 38.702,72.657C39.034,72.943 39.253,73.963 39.253,73.963C39.255,74.442 38.165,75.641 38.165,75.641C38.165,75.641 37.893,76.204 38.102,77.457C38.263,78.976 39.604,80.04 42.111,80.04C43.304,80.086 45.163,80.216 45.222,80.216C45.28,80.216 46.788,80.268 46.924,80.274C50.535,80.433 54.909,76.504 54.909,76.504L58.241,72.987C59.675,71.739 59.529,72.901 59.529,72.901C60.304,73.197 58.39,75.093 58.39,75.093C58.536,75.007 54.077,78.029 54.077,78.029C52.308,79.174 52.282,79.863 52.282,79.863C52.149,81.204 52.124,81.256 52.124,81.256C52.124,81.256 50.14,82.588 49.811,82.506C49.584,82.448 51.544,80.878 51.544,80.878C51.896,80.108 51.05,80.43 50.886,80.492C49.598,81.325 47.915,81.281 47.915,81.281L47.881,82.27C48.005,83.968 48.644,85.164 48.644,85.164L49.524,86.69L50.111,87.922C50.892,89.343 51.108,91.21 51.108,91.21L51.06,95.994Z" style="fill:rgb(0,55,108);stroke:rgb(0,55,108);stroke-width:0.1px;"/>
    </g>
    <g transform="matrix(1,0,0,1,0,-24.944)">
        <path d="M62.353,73.402C62.201,73.7 62.88,74.295 62.88,74.295C62.98,74.433 63.881,75.55 63.881,75.55C63.881,75.55 64.731,76.3 64.606,77.728C64.755,79.026 64.257,79.223 64.013,79.918C63.968,80.695 64.361,82.213 64.361,82.213C64.558,82.676 65.069,85.53 65.069,85.53C65.069,85.53 65.268,88.314 65.399,88.314C65.589,88.533 66.777,88.577 68.965,88.446C70.475,89.151 70.359,90.937 70.492,90.937C70.625,90.937 71.012,90.758 71.012,90.758L71.287,90.096C71.434,89.819 71.512,89.395 71.512,89.395C70.928,89.217 70.658,88.907 70.658,88.907C70.412,88.553 70.527,88.036 70.527,88.036C70.607,87.534 69.646,87.618 69.646,87.618C66.319,87.988 66.111,87.664 66.111,87.664C65.845,87.327 65.311,82.885 65.311,82.885L64.739,80.512C64.731,79.768 65.265,78.792 65.265,78.792C65.474,77.876 65.276,76.531 65.276,76.531C64.929,75.546 63.946,74.493 63.946,74.493C63.307,73.854 63.388,73.507 63.388,73.507C64.593,70.956 64.837,69.238 64.837,69.238L65.003,67.813C64.802,66.028 64.276,65.833 64.276,65.833C64.036,65.634 63.221,65.37 63.221,65.37C62.376,65.088 61.206,65.031 60.899,65.04C60.534,65.007 59.644,65.173 59.644,65.173C59.247,65.239 58.786,65.436 58.786,65.436C58.786,65.436 58.189,65.723 58.737,65.752C58.87,65.759 60.436,65.503 60.833,65.568C61.229,65.634 62.18,65.645 63.654,66.271C64.883,66.641 64.079,69.662 64.079,69.662L62.353,73.402Z" style="fill:rgb(0,55,108);fill-rule:nonzero;stroke:rgb(0,55,108);stroke-width:0.1px;"/>
    </g>
    <g transform="matrix(1,0,0,1,0,5.55)">
        <path d="M66.67,74.754L64.1,77.983L60.625,83.172L58.573,87.305L55.927,96.715L57.177,96.715C58.051,89.089 62.382,81.941 62.382,81.941L66.274,76.731L70.887,70.95L74.713,67.281C74.713,67.281 79.088,63.97 79.49,63.635C79.783,62.988 80.209,64.667 80.209,64.667C80.627,65.48 80.822,65.817 80.822,65.817C81.486,67.928 80.773,67.83 80.773,67.83C79.303,68.027 78.648,69.115 78.648,69.115C77.629,70.716 78.184,72.601 78.184,72.601C76.098,72.378 75.496,73.956 75.496,73.956C74.252,76.314 75.24,78.62 75.24,78.62C75.24,78.62 75.549,80.158 75.482,81.283C75.475,81.43 75.416,82.974 76.053,83.325C76.625,83.743 77.107,83.831 77.107,83.831C77.107,83.831 77.459,84.532 77.986,84.599C79.023,84.731 79.705,83.369 79.769,83.304C79.836,83.237 81,82.183 81,82.183C81,82.183 81.66,81.744 82.561,81.964C82.67,81.985 83.812,81.897 83.812,81.897C85.019,81.832 85.437,80.645 85.437,80.645C85.437,80.645 85.525,83.545 87.506,84.138C87.309,84.402 87.338,84.928 87.338,84.928C86.953,86.555 88.145,87.346 88.145,87.346C90.713,88.909 93.307,87.411 93.307,87.411C94.852,86.53 94.932,84.358 94.932,84.358C95.119,82.594 94.91,81.568 94.91,81.568C93.482,79.302 94.953,77.719 94.953,77.719C95.441,77.279 95.768,76.42 95.932,75.144C96.121,73.041 95.045,72.29 95.045,72.29C94.324,71.701 94.535,71.047 94.535,71.047L94.756,68.489C94.777,67.216 94.228,66.161 94.228,66.161C94.053,65.568 93.086,65.129 93.086,65.129C92.383,64.974 91.352,64.997 91.352,64.997C89.154,65.129 89.301,65.54 89.047,65.443C88.883,65.382 89.355,64.896 89.221,64.157C88.566,62.963 88.922,62.247 88.922,62.247L90.051,60.654C91.625,57.861 91.359,54.471 91.359,54.471C90.953,48.564 89.828,45.424 89.828,45.424C88.203,40.173 85.734,35.501 85.734,35.501C82.547,30.36 75.672,29.423 75.672,29.423C72.297,28.735 66.468,28.985 66.468,28.985C63.452,29.219 61.749,29.969 61.749,29.969C61.749,29.969 59.093,31 57.978,32.766C57.943,32.822 57.599,33.693 57.714,33.757C58.021,33.926 57.978,34.153 57.978,34.153C58.068,34.437 57.714,34.801 57.714,34.801L56.886,36.086C56.886,36.086 56.467,36.765 56.028,38.265C56.038,38.283 55.47,39.7 55.47,39.7C55.227,40.687 54.956,41.609 54.956,41.609C54.878,41.724 53.874,43.804 53.874,43.804C53.579,45.362 53.029,45.975 53.029,45.975L49.036,52.173C48.567,53.044 48.534,53.878 48.64,54.19C48.78,54.604 48.884,54.791 49.28,54.791C49.677,54.791 50.509,54.875 50.78,54.869C51.499,54.853 51.538,55.431 51.538,55.431C51.538,55.431 51.56,57.269 51.577,57.416C51.601,57.603 51.632,58.517 51.632,58.517C51.632,58.517 51.585,59.103 52.351,59.4C52.374,59.439 52.491,59.58 52.224,60.002C52.163,60.135 51.976,61.187 52.007,61.275C52.046,61.385 52.024,61.534 52.296,61.65C53.132,62.01 53.124,62.611 53.124,62.611C53.28,62.963 52.421,64.437 52.421,64.437C51.936,65.205 52.147,67.473 52.171,67.619C52.468,69.463 54.569,69.937 54.569,69.937C56.694,70.031 57.892,69.967 57.892,69.967L60.377,69.732C61.12,69.662 61.14,70.963 61.14,70.963L63.077,79.513C63.733,78.548 63.69,78.585 63.69,78.585L63.327,76.675L62.241,71.681C61.811,69.322 61.839,69.997 61.839,69.732C61.839,69.469 62.686,69.382 62.686,69.382C68.465,68.388 69.049,66.586 69.312,66.205C70.248,64.568 71.773,59.799 71.773,59.799C71.773,59.799 72.269,59.186 72.719,59.056C73.312,58.885 73.875,59.228 73.875,59.228C74.133,59.377 74.758,60.096 74.758,60.096C75.156,60.385 76.047,60.658 76.047,60.658C76.422,60.744 77.742,61.306 77.891,61.353C78.016,61.393 78.437,61.732 78.562,61.83C78.676,61.921 80.031,62.269 80.031,62.269C79.764,61.716 79.904,61.626 78.805,60.791C78.639,60.665 75.875,59.76 75.875,59.76C75.164,59.353 74.76,58.95 74.617,58.83C73.641,58.017 73.125,57.885 73.125,57.885C72.125,57.713 70.883,59.33 70.883,59.33L70.469,60.201C70.58,61.28 68.67,65.357 68.67,65.357C68.389,65.889 68.26,66.848 66.799,67.131C65.571,67.598 64.821,67.804 63.358,68.066C60.903,68.622 59.179,68.622 59.179,68.622L56.207,68.681C51.074,68.821 52.968,64.74 52.968,64.74L53.431,63.623C53.551,63.299 53.778,63.457 54.043,63.469C54.815,63.503 54.169,62.818 54.169,62.818C53.876,62.51 53.475,61.784 54.103,61.213C54.119,61.049 53.792,61.103 53.792,61.103C53.132,61.536 52.823,61.159 52.823,61.159C52.425,60.553 52.999,60.189 52.999,60.189C52.999,60.189 53.325,59.827 54.55,60.156C54.835,60.233 55.542,60.155 55.542,60.155C56.046,60.064 56.034,59.665 56.034,59.665C55.378,59.192 55.536,59.228 55.219,59.082C55.054,59.006 54.913,59.961 53.847,59.212C53.284,58.673 53.19,58.732 53.124,58.732C52.513,58.732 52.435,58.913 52.265,58.236L52.21,55.783L52.235,55.06L53.336,55.202C54.003,55.436 54.366,55.345 54.366,55.345C54.132,55.434 55.497,55.223 55.011,54.054C54.71,54.777 53.253,54.366 53.253,54.366C52.199,53.604 50.735,53.973 50.735,53.973C48.867,54.245 49.718,52.838 49.718,52.838L51.503,50.012C51.503,50.012 53.448,47.296 54.493,45.523C54.727,43.614 55.062,42.88 55.062,42.88C55.829,42.029 56.044,41.292 56.063,41.229C57.108,37.78 57.276,37.1 57.276,37.1C57.42,36.516 58.126,35.382 58.928,35.237C58.243,34.534 58.41,33.067 58.903,32.7C59.28,32.204 60.311,31.501 60.311,31.501C60.561,31.313 63.405,29.969 66.624,29.86C69.734,29.755 72.375,29.907 74.578,30.173C76.533,30.409 81.75,32.688 81.75,32.688C83.338,33.493 84.578,35.313 84.578,35.313C85.578,36.376 87.688,41.298 87.688,41.298C87.688,41.298 89.23,46.549 89.297,46.549C89.363,46.549 90.443,50.136 90.635,56.096C90.396,60.057 88.484,61.174 88.484,61.189C88.187,61.783 88.195,62.181 88.195,62.181C88.156,62.814 88.262,63.238 88.262,63.238C88.744,64.266 88.629,64.758 88.629,64.758C88.691,64.894 88.262,65.758 88.262,65.758C88.262,65.758 88.109,66.408 89.352,66.205C89.613,66.162 90.465,65.971 90.465,65.971C92.353,65.738 93.723,65.865 94.143,68.168C94.143,68.168 93.613,70.178 93.812,71.931C95.51,73.829 95.236,75.517 95.236,75.583C95.236,75.649 95.25,75.815 94.58,76.661C94.539,76.713 93.502,78.445 93.502,78.445C93.074,80.265 93.699,81.44 93.699,81.44C94.318,82.453 94.008,84.618 94.008,84.618C93.248,88.541 86.205,87.936 88.187,83.915C86.514,82.763 86.402,81.75 86.402,81.75L85.529,79.238L84.068,80.681C83.506,81.384 82.156,81.384 82.156,81.384L80.195,81.229C80.195,81.229 80.355,82.2 79.371,82.763C78.008,84.534 77.334,83.409 77.334,83.409C75.844,82.425 76.068,78.84 76.068,78.84C74.775,77.265 75.959,75.276 75.959,75.276C76.32,73.047 78.74,73.102 78.74,73.102C78.74,73.102 78.73,72.112 78.74,71.627C78.754,70.816 79.271,69.719 79.271,69.719C80.055,68.811 80.791,68.688 80.791,68.688C82.133,68.623 81.805,67.314 81.805,67.314L81.469,65.784L80.869,63.564C80.725,63.151 80.014,62.24 80.014,62.24L79.219,62.759L74.779,66.161C71.266,68.885 66.67,74.754 66.67,74.754" style="fill:rgb(0,55,108);"/>
    </g>
    <g transform="matrix(1,0,0,1,0,-35.849)">
        <path d="M43.023,81.032C42.984,81.064 42.95,81.089 42.919,81.109C42.115,81.65 41.618,82.747 41.618,82.747L41.462,84.023C41.683,84.519 42.28,84.068 42.28,84.068C42.287,84.068 42.396,83.245 42.739,82.84C42.968,82.453 43.569,81.931 44.763,81.626C45.303,81.524 45.529,81.425 45.602,81.439C46.232,81.56 45.854,82.033 45.854,82.033C45.735,82.113 44.575,82.364 44.575,82.364C43.206,82.591 42.957,83.96 42.957,83.96C42.909,85.157 42.284,86.032 42.284,86.032C42.036,84.818 41.308,84.459 41.308,84.459C41.12,84.023 41.097,83.595 41.097,83.595C41.122,82.466 41.513,81.555 41.809,81.031L43.023,81.032ZM47.68,81.032C47.2,82.029 46.694,81.47 46.435,81.038L47.68,81.032ZM52.13,81.032C51.686,81.293 51.382,81.345 51.382,81.345L49.097,81.937C49.097,81.937 49.025,82.08 49.05,82.103C49.073,82.126 49.524,83.463 51.301,82.293C51.351,82.264 52.226,81.586 52.943,81.031L55.675,81.032C55.499,81.539 55.298,82.103 55.298,82.103C55.688,81.814 53.735,83.145 53.735,83.145L52.894,83.672C51.491,84.765 49.948,84.47 49.948,84.47C49.207,84.464 48.765,84.068 48.765,84.068L48.505,83.878C49.769,84.083 50.794,84.16 51.519,83.782C51.566,83.782 53.581,82.891 54.753,81.393C54.724,80.817 53.665,81.204 53.665,81.204L52.954,81.582C52.389,81.783 50.645,83.307 50.645,83.307C50.365,83.525 49.961,83.37 49.961,83.37C49.338,82.56 48.292,82.412 48.292,82.412L47.534,82.458C46.817,82.685 46.941,82.281 46.941,82.281C46.941,82.281 47.315,81.751 49.649,81.284C50.22,81.197 50.649,81.115 50.976,81.035L52.13,81.032" style="fill:rgb(0,55,108);"/>
    </g>
    <g transform="matrix(1,0,0,1,0,-45.636)">
        <path d="M51.321,85.819C50.931,85.889 50.611,86.019 50.502,86.117C50.446,86.117 49.165,86.835 48.642,87.507C48.642,87.507 47.343,88.965 47.272,89.65C47.272,89.65 47.253,89.904 47.47,89.988C47.47,89.988 47.635,90.019 47.669,90.006C47.81,89.865 48.53,88.348 49.032,87.956C49.032,87.956 50.894,86.392 52.194,87.024L53.204,87.742C53.204,87.742 53.515,87.927 53.712,87.939C53.712,87.939 54.366,87.973 54.882,87.809C54.882,87.809 55.58,87.704 54.99,87.391L54.651,87.249L54.341,87.136C54.048,87.056 53.622,86.733 53.087,86.117C53.087,86.117 52.731,85.903 52.456,85.826L53.871,85.819C54.323,86.312 54.815,86.589 54.849,86.589C54.892,86.589 55.655,86.822 56.614,85.82L57.886,85.819C57.856,85.859 57.822,85.9 57.784,85.944L56.741,86.47C56.741,86.47 55.94,86.967 55.89,87.464C55.956,88.1 56.841,87.48 56.841,87.48C57.146,88.3 56.409,88.719 56.409,88.719C56.116,88.554 54.966,88.695 54.966,88.695C54.069,88.923 53.38,89.713 53.38,89.713C52.935,90.272 52.487,90.615 52.13,90.824L50.976,90.819C52.066,90.558 51.996,90.333 52.097,90.1C52.097,90.1 52.19,89.834 51.866,89.926C51.794,89.946 50.659,90.139 50.564,90.139C50.47,90.139 50.304,90.163 50.304,90.163C50.304,90.163 51.081,89.608 53.073,89.484C53.416,88.923 53.353,89.017 52.977,88.79C52.977,88.79 52.175,88.569 51.77,88.695C50.956,88.865 50.351,89.476 50.351,89.476L49.499,90.187L48.591,90.728C48.591,90.728 48.727,90.321 48.747,90.292C49.276,89.515 50.824,88.648 50.824,88.648L51.724,88.292C52.284,87.647 50.942,87.773 50.942,87.773C49.369,87.771 48.244,89.547 48.244,89.547C48.244,89.547 47.768,90.704 47.7,90.778C47.693,90.792 47.686,90.807 47.68,90.822L46.435,90.819C46.323,90.639 46.257,90.477 46.257,90.47C46.257,90.447 45.948,90.257 45.901,90.257C45.854,90.257 45.476,90.163 45.476,90.163C43.933,90.054 43.343,90.576 43.023,90.822L41.809,90.819C41.985,90.503 42.129,90.327 42.138,90.327C42.665,89.905 42.99,89.601 43.511,89.476C43.511,89.476 44.329,89.149 46.422,89.286C46.837,88.968 46.398,88.695 46.398,88.695C46.398,88.695 45.285,88.337 43.061,88.601C42.693,88.694 42.53,88.392 42.53,88.392C42.506,88.32 43.47,87.025 43.517,87.025C43.564,87.025 45.664,86.492 47.72,86.962C48.854,87.222 48.386,86.24 48.274,86.211C48.183,86.064 47.659,85.918 47.17,85.812L51.321,85.819ZM52.943,90.819C53.45,90.424 53.878,90.092 53.878,90.092C54.542,89.732 55.936,89.997 55.936,89.997C55.946,90.013 55.819,90.396 55.675,90.812L52.943,90.819ZM43.484,88.134C44.394,88.1 44.783,88.021 44.783,88.021C45.44,87.951 46.393,88.191 46.393,88.191C46.69,88.295 47.296,88.304 47.296,88.304C47.917,88.178 47.523,87.626 47.523,87.626C46.69,87.037 45.376,87.117 45.376,87.117C43.753,87.069 43.259,87.907 43.259,87.907C43.198,87.955 43.198,88.162 43.484,88.134" style="fill:rgb(0,55,108);"/>
    </g>
    <g transform="matrix(1,0,0,1,0,-55.448)">
        <path d="M47.17,95.631C46.705,95.524 46.271,95.458 46.271,95.458C46.192,95.469 47.343,94.948 49.428,95.596C49.825,95.719 49.818,95.182 49.818,95.182C49.754,94.78 48.753,94.268 48.812,94.341C47.575,93.982 46.37,94.149 46.37,94.149L47.984,92.258C47.984,92.258 48.376,92.19 48.423,92.19C48.471,92.19 49.286,92.025 49.955,92.214C50.598,92.395 51.412,93.792 51.412,93.792L51.824,94.361C52.597,95.599 52.387,94.341 52.387,94.341C52.387,94.341 52.315,94.01 52.292,93.963C51.967,92.869 51.474,92.248 51.155,91.786C50.909,91.428 49.963,91.362 49.963,91.362C48.043,91.573 50.89,90.729 51.724,91.146C51.77,91.17 52.149,91.761 52.149,91.761L53.356,94.909C53.496,95.186 53.681,95.429 53.871,95.636L52.456,95.631C52.423,95.629 52.392,95.621 52.362,95.616C52.019,95.548 51.645,95.569 51.321,95.629L47.17,95.631ZM56.614,95.631C56.687,95.555 56.761,95.473 56.836,95.383C57.081,95.099 57.144,95.005 57.144,95.005C57.686,94.925 58.421,94.927 57.886,95.632L56.614,95.631ZM48.153,93.425C48.265,93.454 48.522,93.438 48.522,93.438C50.201,93.561 50.321,94.586 50.321,94.586C50.368,94.813 51.141,95.621 51.12,94.173C50.759,92.702 49.087,92.733 49.087,92.733C48.405,92.737 48.089,93.044 48.089,93.044C48.089,93.044 47.942,93.32 48.153,93.425" style="fill:rgb(0,55,108);"/>
    </g>
    <g transform="matrix(1,0,0,1,0,-11.658)">
        <path d="M41.478,73.246C41.901,73.246 42.151,73.215 42.479,73.168C42.495,72.98 42.579,71.807 42.579,71.807L42.579,71.201L42.681,70.696L42.983,70.343C42.983,70.343 43.186,70.14 43.388,70.14C43.591,70.14 43.995,70.191 43.995,70.191L44.702,70.241L45.208,70.494L46.134,70.859L46.753,71.728L46.917,72.019L47.349,72.197C47.45,72.228 47.839,72.373 47.839,72.373C47.741,72.257 46.799,70.722 46.658,70.555C46.658,70.555 46.389,70.336 46.281,70.363C45.911,70.183 45.669,70.172 45.669,70.172L44.861,69.818L44.306,69.515L43.716,69.412L43.138,69.412L42.569,69.449L41.964,69.521L41.792,69.771L41.995,70.367L42.104,70.804L42.104,71.916L41.933,72.557L41.478,73.246Z" style="fill:rgb(0,55,108);fill-rule:nonzero;stroke:rgb(0,55,108);stroke-width:0.14px;"/>
    </g>
    <g transform="matrix(1,0,0,1,0,-8.85801)">
        <path d="M43.683,71.254L44.102,71.256C44.102,71.256 44.323,71.239 44.374,71.239L44.817,71.239C44.901,71.239 45.243,71.102 45.276,71.102C45.31,71.102 45.976,70.673 45.976,70.673L46.12,70.482L46.026,70.214L45.872,69.842C45.872,69.842 45.634,69.673 45.583,69.655C45.532,69.637 45.31,69.504 45.31,69.504L45.072,69.317L44.749,69.113L44.476,68.909L44.289,68.756L43.966,68.653L43.847,68.636L43.761,68.602L43.591,68.636L43.454,68.721L43.48,68.85L43.548,68.952L43.718,69.02L43.905,69.105L44.128,69.19L44.399,69.327L44.655,69.428L44.859,69.596L45.029,69.807L45.134,70.04L44.815,70.171L44.591,70.153L44.459,69.962L44.34,69.876L44.204,69.723L44.05,69.637L43.931,69.604L43.692,69.621L43.493,69.723L43.472,69.909L43.505,70.098L43.53,70.405C43.53,70.405 43.71,70.421 43.744,70.421C43.778,70.421 43.982,70.456 43.982,70.456L44.204,70.404C44.204,70.404 44.306,70.353 44.34,70.353C44.374,70.353 44.53,70.309 44.581,70.309C44.632,70.309 44.819,70.344 44.819,70.344L45.069,70.54L45.034,70.76L44.765,70.899L44.595,70.899L44.321,70.967L44.101,71.002L43.731,71.035L43.597,71.152L43.683,71.254Z" style="fill:rgb(0,55,108);fill-rule:nonzero;stroke:rgb(0,55,108);stroke-width:0.14px;"/>
    </g>
    <g transform="matrix(1,0,0,1,0,-4.31401)">
        <path d="M43.897,67.341L43.931,67.58L44.034,67.767L44.204,67.904L44.34,67.955L44.579,67.989L44.834,67.904L44.987,67.734L45.056,67.614L45.02,67.495C45.02,67.495 45.106,67.444 44.901,67.444C44.698,67.444 44.579,67.46 44.579,67.46L44.34,67.427L44.221,67.359L44.085,67.325L43.931,67.325L43.897,67.341Z" style="fill:rgb(0,55,108);fill-rule:nonzero;stroke:rgb(0,55,108);stroke-width:0.14px;"/>
    </g>
    <g transform="matrix(1,0,0,1,0,7.607)">
        <path d="M78.396,59.367L77.941,59.721L77.537,60.025L76.93,60.429L76.119,60.986L75.361,61.597L74.551,62.305L73.641,63.014L72.83,63.571L72.117,64.178L71.611,64.633C71.406,64.71 71.156,64.735 71.156,64.735C71.047,64.721 71.078,64.541 71.078,64.541C71.228,64.402 71.377,64.298 71.377,64.298L71.865,63.925L72.477,63.52L73.082,63.065L73.791,62.508L74.348,62.052L75.006,61.495L75.562,60.986L76.322,60.328L77.283,59.367L77.639,58.861L77.941,58.658L78.297,58.658L78.549,58.81L78.396,59.367Z" style="fill:rgb(0,55,108);fill-rule:nonzero;stroke:rgb(0,55,108);stroke-width:0.14px;"/>
    </g>
    <g transform="matrix(1,0,0,1,0,15.395)">
        <path d="M73.902,55.938C74.002,56.02 73.943,56.137 73.943,56.137L73.641,56.542L71.596,58.171L71.105,58.566L70.549,59.022L70.094,59.426L69.789,59.68C69.703,59.751 69.619,59.751 69.537,59.68C69.533,59.537 69.738,59.377 69.738,59.377C69.83,59.283 70.498,58.82 70.498,58.82L71.156,58.263L71.814,57.756L72.678,57.098L73.133,56.745L73.488,56.39L73.639,56.213C73.797,55.854 73.902,55.938 73.902,55.938Z" style="fill:rgb(0,55,108);fill-rule:nonzero;stroke:rgb(0,55,108);stroke-width:0.14px;"/>
    </g>
    <g transform="matrix(1,0,0,1,0,4.799)">
        <path d="M76.814,61.349L76.697,61.497L76.57,61.645L76.168,62.005L75.744,62.354L75.248,62.767L74.92,63.042L74.506,63.433L74.072,63.814L73.703,64.175L73.437,64.407L73.184,64.641L72.887,64.905L72.685,65.053L72.496,65.138L72.295,65.105L72.252,64.958L72.412,64.766L72.781,64.47L73.141,64.185L73.586,63.772L74.041,63.328L74.475,62.873L74.93,62.418L75.396,61.984L75.84,61.529L76.178,61.095L76.338,61.063L76.527,61.063L76.654,61.127L76.814,61.349Z" style="fill:rgb(0,55,108);fill-rule:nonzero;stroke:rgb(0,55,108);stroke-width:0.14px;"/>
    </g>
    <g transform="matrix(1,0,0,1,0,2.297)">
        <path d="M75.67,63.343L75.437,63.48L75.268,63.703L75.047,63.925L74.887,64.104L74.602,64.39L74.422,64.581L74.23,64.804L73.988,65.068L73.818,65.237L73.723,65.344L73.576,65.46C73.402,65.582 73.289,65.491 73.289,65.491C73.25,65.32 73.428,65.174 73.428,65.174L73.564,64.973L73.756,64.761L73.945,64.57L74.221,64.274L74.453,63.989L74.633,63.788L74.771,63.618L74.951,63.46L74.973,63.322L74.93,63.163C74.93,63.163 75.078,63.121 75.1,63.121C75.121,63.121 75.279,63.143 75.279,63.143L75.385,63.174L75.512,63.206L75.67,63.343Z" style="fill:rgb(0,55,108);fill-rule:nonzero;stroke:rgb(0,55,108);stroke-width:0.14px;"/>
    </g>
    <g transform="matrix(1,0,0,1,0,5.989)">
        <path d="M70.861,59.094L70.471,59.265L69.893,60.188L68.768,62.203L66.916,64.802C66.243,65.942 65.513,66.235 65.513,66.235C65.091,66.313 63.944,66.604 63.944,66.604L65.127,65.735C65.835,65.365 66.877,64.11 66.877,64.11L67.721,63.063L68.393,62.125L68.908,61.313L69.518,60.328C69.643,60.237 70.08,58.407 70.08,58.407L70.346,58.453L70.564,58.641L70.736,58.844L70.861,59.094Z" style="fill:rgb(0,55,108);stroke:rgb(0,55,108);stroke-width:0.14px;"/>
    </g>
    <g transform="matrix(1,0,0,1,0,5.473)">
        <path d="M70.002,58.656L69.814,58.954L69.252,59.688L68.877,60.251L68.33,61.063L67.846,61.673L67.377,62.219L66.908,62.829L66.33,63.469L65.752,64.094L65.236,64.626L64.705,65.157L64.174,65.657L63.721,66.094L62.599,67.266L61.897,67.354L62.783,66.501L63.268,66.048L64.064,65.36L64.533,64.923L65.08,64.438L65.408,64.094L65.674,63.798L66.096,63.329L66.549,62.782L66.924,62.266L67.58,61.423L67.986,60.938L68.674,59.891L69.393,58.673L69.643,58.173L70.018,58.407L70.002,58.656Z" style="fill:rgb(0,55,108);fill-rule:nonzero;stroke:rgb(0,55,108);stroke-width:0.14px;"/>
    </g>
    <g transform="matrix(1,0,0,1,0,4.806)">
        <path d="M69.143,58.371L68.877,58.777L68.627,59.215L68.033,59.965L67.314,60.824L66.221,62.215L65.518,63.043L65.049,63.605L64.033,64.761L63.596,65.215L62.627,66.168L62.143,66.652L61.361,67.355C60.139,68.343 59.763,68.372 59.763,68.372C59.313,68.43 58.886,68.43 58.886,68.43C58.886,68.43 59.377,68.074 59.408,68.074C59.439,68.074 59.783,67.918 59.783,67.918L60.189,67.683L60.658,67.355L61.252,66.902L61.721,66.465L62.783,65.433L63.471,64.761L64.064,64.121L64.893,63.183L65.705,62.261L66.33,61.48L67.471,60.011L68.588,58.374C68.588,58.374 68.684,58.186 68.709,58.168C69.232,57.764 69.143,58.371 69.143,58.371Z" style="fill:rgb(0,55,108);fill-rule:nonzero;stroke:rgb(0,55,108);stroke-width:0.14px;"/>
    </g>
    <g transform="matrix(1,0,0,1,0,11.926)">
        <path d="M60,59.184L59.627,59.438L59.127,59.782L58.542,60.079L58.111,60.282L57.736,60.438L57.229,60.632L56.545,60.794L55.623,60.88L54.932,60.919C54.932,60.919 53.943,61.157 54.908,61.313C54.954,61.321 55.471,61.282 55.471,61.282L56.205,61.204C56.943,61.173 57.783,60.813 57.814,60.813C57.846,60.813 58.814,60.407 58.814,60.407L60.424,59.345L61.663,58.222C61.913,57.753 60,59.184 60,59.184Z" style="fill:rgb(0,55,108);fill-rule:nonzero;stroke:rgb(0,55,108);stroke-width:0.14px;"/>
    </g>
    <g transform="matrix(1,0,0,1,0,30.429)">
        <path d="M50.185,50.398C48.294,50.807 47.827,50.749 47.827,50.749L41.892,51.011C40.956,50.982 40.47,50.807 40.47,50.807L41.892,50.631C43.702,50.674 49.455,49.894 49.455,49.894L51.88,49.56L50.185,50.398Z" style="fill:rgb(0,55,108);fill-rule:nonzero;stroke:rgb(0,55,108);stroke-width:0.14px;"/>
    </g>
    <g transform="matrix(1,0,0,1,0,27.178)">
        <path d="M52.494,51.789L49.95,52.314L46.583,52.747C46.583,52.747 44.79,52.814 44.737,52.827C44.564,52.87 44.265,52.763 44.265,52.763C44.251,52.626 44.31,52.613 44.31,52.613C44.31,52.613 44.524,52.559 44.605,52.559C44.685,52.559 46.557,52.399 46.557,52.399L50.507,51.847L53.138,51.233L54.279,50.952L52.494,51.789Z" style="fill:rgb(0,55,108);stroke:rgb(0,55,108);stroke-width:0.14px;"/>
    </g>
    <g transform="matrix(1,0,0,1,0,23.78)">
        <path d="M57.037,53.151L54.561,53.649L52.05,54.141L48.767,54.635C48.116,54.738 47.423,54.635 47.423,54.635C47.179,54.683 47.243,54.545 47.243,54.545C47.251,54.412 47.513,54.276 47.602,54.276C47.692,54.276 48.053,54.231 48.053,54.231C48.505,54.25 50.61,53.915 50.61,53.915L53.085,53.466C53.085,53.466 54.974,53.022 55.198,52.976C55.423,52.932 57.307,52.482 57.307,52.482L57.037,53.151Z" style="fill:rgb(0,55,108);fill-rule:nonzero;stroke:rgb(0,55,108);stroke-width:0.14px;"/>
    </g>
    <g transform="matrix(1,0,0,1,0,3.38)">
        <path d="M52.563,63.548L52.249,63.433L51.878,63.433L51.622,63.548L51.364,63.69L50.966,63.919L50.566,64.146L50.024,64.489L49.739,64.66L49.597,64.746L49.254,64.86L49.226,64.774L49.339,64.66L49.796,64.318L50.338,63.89L50.823,63.576L51.279,63.319L51.593,63.119L51.851,62.949L52.149,62.76L52.421,62.807L52.592,63.234L52.563,63.548Z" style="fill:rgb(0,55,108);fill-rule:nonzero;stroke:rgb(0,55,108);stroke-width:0.14px;"/>
    </g>
    <g transform="matrix(1,0,0,1,0,0.548)">
        <path d="M52.335,64.953C52.278,64.925 51.964,64.868 51.964,64.868L51.735,65.01L51.308,65.295L51.079,65.438L50.623,65.695L50.338,65.866L50.11,66.123L49.882,66.237L49.539,66.351L49.311,66.436C49.267,66.497 49.111,66.436 49.111,66.436C49.111,66.436 49.083,66.322 49.196,66.265C49.311,66.209 49.481,66.123 49.567,66.066C49.653,66.009 50.224,65.523 50.224,65.523L50.994,64.953L51.65,64.554C51.65,64.554 52.106,64.325 52.163,64.325C52.221,64.325 52.335,64.04 52.335,64.04L52.592,63.955L53.019,64.298C53.019,64.298 52.935,64.497 52.905,64.583C52.877,64.668 52.734,64.896 52.734,64.896C52.734,64.896 52.392,64.982 52.335,64.953Z" style="fill:rgb(0,55,108);fill-rule:nonzero;stroke:rgb(0,55,108);stroke-width:0.14px;"/>
    </g>
    <g transform="matrix(1,0,0,1,0,-4.57701)">
        <path d="M51.708,67.739L51.423,67.91L51.022,68.11L50.452,68.452L50.024,68.737L49.653,68.994C49.653,68.994 49.65,69.031 49.454,69.108C49.177,69.218 49.053,69.266 49.053,69.266C48.978,69.293 48.883,69.108 48.94,69.052C48.997,68.994 49.226,68.794 49.226,68.794L49.597,68.623L50.081,68.223L50.452,67.938L50.823,67.739L51.137,67.511L51.394,67.368L51.593,67.282L51.765,67.054L51.793,66.683L51.536,66.655L51.279,66.74L50.794,67.083L50.138,67.481L49.796,67.739L49.539,67.938C49.539,67.938 49.282,68.081 49.196,68.081C49.111,68.081 48.968,68.105 48.911,68.11C48.717,68.125 48.712,67.968 48.712,67.968C48.763,67.824 48.997,67.71 48.997,67.71L49.882,67.254L50.31,66.911L50.664,66.671L51.022,66.427L51.364,66.341L51.622,66.284L51.765,66.312L51.993,66.798L51.993,67.254L51.708,67.739Z" style="fill:rgb(0,55,108);fill-rule:nonzero;stroke:rgb(0,55,108);stroke-width:0.14px;"/>
    </g>
    <g transform="matrix(1,0,0,1,0,-8.68101)">
        <path d="M51.708,69.263L51.251,69.56L50.767,69.818L50.31,70.046L50.024,70.274L49.624,70.501L49.311,70.673L49.054,70.787L48.769,70.902C48.769,70.902 48.655,70.872 48.683,70.816C48.712,70.759 48.798,70.616 48.798,70.616C48.798,70.616 49.14,70.474 49.169,70.416C49.196,70.359 49.567,70.216 49.597,70.16C49.624,70.103 49.882,69.874 49.882,69.874C49.882,69.874 50.081,69.76 50.224,69.704C50.366,69.646 50.651,69.417 50.651,69.417C50.651,69.417 50.994,69.263 51.022,69.206C51.052,69.149 51.079,69.092 51.165,69.006C51.251,68.921 51.394,68.835 51.394,68.835C51.394,68.835 51.565,68.779 51.622,68.864C51.679,68.949 51.765,69.035 51.765,69.035L51.708,69.263Z" style="fill:rgb(0,55,108);fill-rule:nonzero;stroke:rgb(0,55,108);stroke-width:0.14px;"/>
    </g>
    <g transform="matrix(1,0,0,1,0,-10.046)">
        <path d="M65.274,70.003L64.993,70.143L64.629,70.339L64.32,70.507L64.065,70.648L63.728,70.847L63.42,70.959L63.026,71.128L62.718,71.212L62.382,71.323C62.382,71.323 62.241,71.437 62.185,71.323C62.129,71.212 62.129,71.155 62.129,71.155C62.129,71.155 62.241,71.071 62.325,71.043C62.409,71.015 62.831,70.79 62.831,70.79L63.476,70.451L64.009,70.143L64.433,69.918L64.741,69.722L65.022,69.609L65.274,69.722L65.274,70.003Z" style="fill:rgb(0,55,108);fill-rule:nonzero;stroke:rgb(0,55,108);stroke-width:0.14px;"/>
    </g>
    <g transform="matrix(1,0,0,1,0,-11.759)">
        <path d="M64.937,70.509L64.685,70.565L64.265,70.845L63.841,71.098L63.364,71.463L62.971,71.659L62.045,72.136L61.287,72.447L61.007,72.644L60.585,72.756L60.361,72.672L60.585,72.419L60.95,72.249L61.933,71.743L62.55,71.407L63.588,70.761L64.489,70.172L64.741,70.003L64.909,70.144L64.937,70.509Z" style="fill:rgb(0,55,108);fill-rule:nonzero;stroke:rgb(0,55,108);stroke-width:0.14px;"/>
    </g>
    <g transform="matrix(1,0,0,1,0,-13.305)">
        <path d="M64.798,71.045L64.433,71.045L64.177,71.269L63.868,71.549L63.588,71.746L63.167,71.998L62.578,72.335L61.96,72.644L61.372,72.897L60.614,73.233L60.052,73.486L59.491,73.71L59.239,73.766L59.099,73.626L59.183,73.43L59.632,73.233L60.192,73.037L62.325,71.971L63.111,71.465L63.644,71.157L63.897,70.989L64.149,70.848L64.489,70.596L64.769,70.539L64.798,71.045Z" style="fill:rgb(0,55,108);fill-rule:nonzero;stroke:rgb(0,55,108);stroke-width:0.14px;"/>
    </g>
    <g transform="matrix(1,0,0,1,0,-15.465)">
        <path d="M64.573,71.998L64.093,72.109L63.784,72.25L63.251,72.559L62.606,72.951L61.849,73.401L61.034,73.793L60.474,74.103L59.743,74.467L59.267,74.692L58.649,74.916L58.257,75.084L57.864,75.197L57.442,75.225L57.106,75.253L56.825,75.197L56.909,75.028C56.909,75.028 57.106,74.945 57.247,74.916C57.387,74.889 58.06,74.748 58.06,74.748L59.099,74.411L59.912,74.018L61.062,73.345L62.269,72.672L62.915,72.334L63.532,71.97C63.532,71.97 63.812,71.801 63.868,71.774C63.925,71.745 64.037,71.633 64.065,71.576C64.093,71.521 64.177,71.212 64.177,71.212L64.376,71.353L64.517,71.633L64.573,71.998Z" style="fill:rgb(0,55,108);fill-rule:nonzero;stroke:rgb(0,55,108);stroke-width:0.14px;"/>
    </g>
    <g transform="matrix(1,0,0,1,0,-1.026)">
        <path d="M52.136,65.358L51.793,65.415L51.536,65.586L51.079,65.842L50.395,66.299L50.053,66.47L49.91,66.613L49.624,66.841L49.396,67.012C49.397,67.012 49.169,67.097 49.111,67.097C49.054,67.097 48.911,67.069 48.911,67.069C48.911,67.069 48.911,66.898 48.969,66.869C49.026,66.841 49.282,66.641 49.282,66.641L49.653,66.413L49.968,66.157L50.224,65.957L50.566,65.728L50.936,65.529L51.222,65.3L51.394,65.186L51.565,65.072L51.735,64.929L52.05,65.015L52.221,65.13L52.136,65.358Z" style="fill:rgb(0,55,108);fill-rule:nonzero;stroke:rgb(0,55,108);stroke-width:0.14px;"/>
    </g>
    <g transform="matrix(1,0,0,1,0,-0.971)">
        <path d="M52.136,65.303L51.793,65.36L51.536,65.531L51.079,65.787L50.395,66.244L50.053,66.415L49.91,66.558L49.624,66.786L49.396,66.957C49.397,66.957 49.155,67.056 49.1,67.066C48.912,67.097 48.911,66.843 48.969,66.814C49.026,66.786 49.282,66.586 49.282,66.586L49.653,66.358L49.968,66.102L50.224,65.902L50.566,65.673L50.936,65.474L51.222,65.245L51.394,65.131L51.565,65.017L51.735,64.874L52.05,64.96L52.221,65.075L52.136,65.303Z" style="fill:rgb(0,55,108);fill-rule:nonzero;stroke:rgb(0,55,108);stroke-width:0.14px;"/>
    </g>
    <g transform="matrix(1,0,0,1,0,40.367)">
        <path d="M50.135,45.817L50.28,45.598L50.434,45.318L50.612,45.164L50.766,45.011L50.872,44.709C50.915,44.685 50.612,44.807 50.612,44.807L50.331,44.934L50.153,45.062L49.946,45.193L49.814,45.948L50.135,45.817Z" style="fill:rgb(0,55,108);fill-rule:nonzero;stroke:rgb(0,55,108);stroke-width:0.1px;"/>
    </g>
    <g transform="matrix(0.798641,-0.601807,-0.601807,-0.798641,23.5124,137.218)">
        <path d="M21.056,31.054C21.583,31.054 22.028,31.5 22.029,32.027C22.029,32.571 21.585,33 21.056,33C20.511,33.001 20.083,32.572 20.083,32.027C20.083,31.499 20.511,31.054 21.056,31.054" style="fill:rgb(0,55,108);fill-rule:nonzero;"/>
    </g>
    <g transform="matrix(1,0,0,1,0,84.287)">
        <path d="M30.435,27.185L29.98,26.803L29.26,27.662L25.898,24.842L33.778,22.841L34.012,22.563L29.525,18.799L29.738,18.546L29.283,18.164L28.096,19.58L28.551,19.961L29.102,19.305L32.261,21.955L24.395,23.989L24.172,24.255L29.29,28.549L30.435,27.185" style="fill:rgb(0,55,108);fill-rule:nonzero;"/>
    </g>
    <g transform="matrix(1,0,0,1,0,96.928)">
        <path d="M44.53,16.332L41.63,14.725L41.31,15.301L42.392,15.902L40.393,19.509C39.745,20.677 38.503,21.082 37.421,20.482C36.367,19.898 36.108,18.699 36.764,17.515L38.77,13.894L39.867,14.503L40.186,13.926L36.912,12.11L36.593,12.687L37.688,13.295L35.515,17.219C34.763,18.575 35.335,20.194 36.88,21.049C38.524,21.962 40.241,21.517 41.104,19.96L43.128,16.309L44.21,16.909L44.53,16.332" style="fill:rgb(0,55,108);fill-rule:nonzero;"/>
    </g>
    <g transform="matrix(1,0,0,1,0,108.379)">
        <path d="M52.409,15.333C53.931,15.712 54.985,15.227 55.293,13.995C55.593,12.794 54.892,11.854 53.367,11.424C54.535,11.715 55.556,11.238 55.795,10.277C56.074,9.157 55.39,8.222 54.028,7.883L50.124,6.909L49.976,7.501L51.177,7.801L49.628,14.01L48.428,13.711L48.28,14.303L52.409,15.333ZM51.575,11.385L52.727,11.672C53.784,11.936 54.185,12.579 53.936,13.571C53.709,14.483 53.05,14.812 51.993,14.549L50.856,14.265L51.575,11.385ZM52.381,8.151L53.517,8.435C54.302,8.631 54.606,9.183 54.406,9.982C54.202,10.799 53.56,11.199 52.759,11L51.734,10.744L52.381,8.151" style="fill:rgb(0,55,108);"/>
    </g>
    <g transform="matrix(1,0,0,1,0,111.512)">
        <path d="M66.704,12.196L66.095,12.175L66.063,13.048L63.261,12.951L63.362,10.066L65.472,10.139L65.443,10.964L66.054,10.985L66.134,8.694L65.523,8.689L65.495,9.48L63.385,9.407L63.481,6.654L66.185,6.748L66.155,7.605L66.748,7.626L66.812,5.78L66.202,5.759L66.191,6.089L61.015,5.907L60.993,6.517L62.23,6.56L62.007,12.957L60.77,12.914L60.749,13.523L66.65,13.729L66.704,12.196" style="fill:rgb(0,55,108);fill-rule:nonzero;"/>
    </g>
    <g transform="matrix(1,0,0,1,0,110.416)">
        <path d="M79.973,12.703L79.516,12.775C79.158,12.832 78.816,12.686 78.477,12.322L76.609,10.347C77.654,9.981 78.195,9.076 78.023,7.985C77.814,6.665 76.855,6.099 75.275,6.35L71.43,6.958L71.533,7.61L72.756,7.417L73.748,13.689L72.527,13.882L72.623,14.485L76.305,13.902L76.209,13.299L74.986,13.493L74.559,10.788L75.357,10.662L77.516,13.009C78.021,13.564 78.162,13.607 78.879,13.494L80.068,13.306L79.973,12.703ZM73.994,7.221L75.135,7.04C75.98,6.905 76.518,7.338 76.662,8.251C76.803,9.146 76.394,9.829 75.611,9.953L74.455,10.137L73.994,7.221" style="fill:rgb(0,55,108);"/>
    </g>
    <g transform="matrix(1,0,0,1,0,104.662)">
        <path d="M90.021,13.74L89.467,13.953L89.826,14.893L87.24,15.886L84.982,10.003L86.137,9.56L85.9,8.944L82.42,10.279L82.656,10.896L83.81,10.452L86.088,16.381L84.932,16.824L85.15,17.394L90.617,15.295L90.021,13.74" style="fill:rgb(0,55,108);fill-rule:nonzero;"/>
    </g>
    <g transform="matrix(1,0,0,1,0,96.136)">
        <path d="M97.666,19.215L96.605,19.852L93.334,14.409L94.394,13.771L94.055,13.206L90.859,15.126L91.199,15.691L92.26,15.054L95.531,20.498L94.471,21.135L94.785,21.658L97.98,19.738L97.666,19.215" style="fill:rgb(0,55,108);fill-rule:nonzero;"/>
    </g>
    <g transform="matrix(1,0,0,1,0,82.155)">
        <path d="M103.957,20.036L104.861,19.193L104.412,18.711L101.986,20.972L102.437,21.454L103.353,20.599L106.572,24.049L99.514,23.278L97.959,24.729L98.408,25.211L99.252,24.424L99.787,24.513L103.824,28.843L102.92,29.687L103.336,30.134L105.762,27.872L105.344,27.426L104.428,28.281L101.109,24.722L108.432,25.562L108.795,25.224L103.957,20.036" style="fill:rgb(0,55,108);fill-rule:nonzero;"/>
    </g>
    <g transform="matrix(-0.808669,-0.588263,-0.588263,0.808669,219.54,137.656)">
        <path d="M110.851,31.395C111.38,31.395 111.824,31.84 111.824,32.369C111.824,32.913 111.378,33.341 110.851,33.341C110.305,33.34 109.877,32.911 109.878,32.366C109.878,31.84 110.307,31.393 110.851,31.395" style="fill:rgb(0,55,108);fill-rule:nonzero;"/>
    </g>
    <g transform="matrix(1,0,0,1,0,45.494)">
        <path d="M15.523,37.112L16.026,38.241L10.18,40.845L9.676,39.715L9.119,39.963L10.635,43.368L11.193,43.12L10.696,42.005L13.273,40.858L15.104,44.972L12.527,46.119L12.025,44.988L11.467,45.237L12.983,48.643L13.541,48.395L13.037,47.264L18.885,44.661L19.388,45.791L19.945,45.543L18.429,42.138L17.871,42.386L18.375,43.516L15.707,44.703L13.876,40.59L16.543,39.403L17.039,40.517L17.598,40.269L16.08,36.863L15.523,37.112" style="fill:rgb(0,55,108);fill-rule:nonzero;"/>
    </g>
    <g transform="matrix(1,0,0,1,0,18.211)">
        <path d="M6.021,52.145L6.541,55.42L7.192,55.316L6.999,54.095L11.072,53.45C12.391,53.241 13.476,53.971 13.669,55.192C13.857,56.382 13.072,57.325 11.736,57.536L7.646,58.185L7.45,56.946L6.799,57.049L7.385,60.747L8.036,60.645L7.84,59.406L12.271,58.704C13.803,58.462 14.726,57.013 14.449,55.27C14.155,53.412 12.748,52.333 10.988,52.611L6.867,53.264L6.674,52.042L6.021,52.145" style="fill:rgb(0,55,108);fill-rule:nonzero;"/>
    </g>
    <g transform="matrix(1,0,0,1,0,-12.913)">
        <path d="M14.021,67.23L13.871,68.458L7.568,67.685L7.719,66.456L7.064,66.376L6.75,68.931L11.96,72.245L6.109,74.153L5.807,76.608L6.462,76.688L6.613,75.461L12.916,76.235L12.766,77.463L13.371,77.537L13.775,74.247L13.17,74.172L13.019,75.399L7.878,74.769L14.074,72.755L8.25,69.031L13.719,69.702L13.567,70.931L14.174,71.005L14.627,67.305L14.021,67.23" style="fill:rgb(0,55,108);fill-rule:nonzero;"/>
    </g>
    <g transform="matrix(1,0,0,1,0,-40.169)">
        <path d="M17.529,85.793C18.09,84.329 17.738,83.223 16.552,82.768C15.396,82.324 14.379,82.905 13.766,84.366C14.197,83.241 13.848,82.171 12.924,81.817C11.846,81.403 10.834,81.968 10.332,83.277L8.889,87.034L9.459,87.253L9.902,86.099L15.877,88.392L15.434,89.547L16.004,89.766L17.529,85.793ZM13.508,86.14L13.934,85.031C14.324,84.015 15.012,83.696 15.967,84.063C16.844,84.4 17.09,85.095 16.699,86.11L16.28,87.204L13.508,86.14ZM10.398,84.946L10.817,83.853C11.107,83.098 11.691,82.863 12.462,83.159C13.247,83.46 13.566,84.148 13.27,84.918L12.893,85.903L10.398,84.946" style="fill:rgb(0,55,108);"/>
    </g>
    <g transform="matrix(1,0,0,1,0,-63.045)">
        <path d="M22.846,99.313C24.038,97.61 23.539,95.045 21.769,93.806C20.025,92.586 17.458,93.002 16.266,94.705C15.055,96.435 15.527,98.981 17.284,100.211C19.067,101.459 21.635,101.042 22.846,99.313ZM16.824,95.115C17.619,93.981 19.465,93.904 20.978,94.964C22.505,96.033 23.073,97.78 22.269,98.929C21.475,100.064 19.625,100.117 18.098,99.049C16.598,97.998 16.029,96.251 16.824,95.115" style="fill:rgb(0,55,108);"/>
    </g>
    <g transform="matrix(1,0,0,1,0,-80.137)">
        <path d="M31.06,104.338L30.633,104.75L31.332,105.474L29.338,107.399L24.961,102.867L25.852,102.007L25.393,101.533L22.711,104.122L23.17,104.597L24.059,103.737L28.471,108.305L27.58,109.164L28.005,109.604L32.217,105.536L31.06,104.338" style="fill:rgb(0,55,108);fill-rule:nonzero;"/>
    </g>
    <g transform="matrix(1,0,0,1,0,-94.332)">
        <path d="M34.977,117.527L38.292,115.455C40.222,114.25 40.811,111.955 39.657,110.109C38.53,108.305 36.155,107.805 34.253,108.993L30.937,111.064L31.262,111.582L32.31,110.927L35.702,116.353L34.653,117.01L34.977,117.527ZM36.739,115.648L33.4,110.305L34.505,109.613C35.792,108.809 37.519,109.363 38.464,110.875C39.407,112.385 39.132,114.152 37.83,114.966L36.739,115.648" style="fill:rgb(0,55,108);"/>
    </g>
    <g transform="matrix(1,0,0,1,0,-106.475)">
        <path d="M50.114,121.522L48.788,121.978L46.721,115.973L48.997,115.19L49.298,116.063L49.876,115.864L49.253,114.055L48.675,114.254L48.782,114.565L43.044,116.541L42.936,116.23L42.374,116.423L42.997,118.233L43.56,118.04L43.259,117.165L45.535,116.381L47.602,122.386L46.276,122.842L46.476,123.42L50.312,122.098L50.114,121.522" style="fill:rgb(0,55,108);fill-rule:nonzero;"/>
    </g>
    <g transform="matrix(-0.981629,0.190802,0.190802,0.981629,87.0176,-118.482)">
        <path d="M53.945,119.925L57.094,119.925L57.094,121.178L53.945,121.179L53.945,119.925" style="fill:rgb(0,55,108);fill-rule:nonzero;"/>
    </g>
    <g transform="matrix(1,0,0,1,0,-111.88)">
        <path d="M70.855,117.62L67.541,117.564L67.529,118.223L68.766,118.244L68.693,122.367C68.67,123.703 67.764,124.644 66.526,124.622C65.322,124.602 64.53,123.664 64.554,122.312L64.626,118.172L65.88,118.195L65.892,117.534L62.148,117.469L62.136,118.128L63.39,118.151L63.311,122.636C63.284,124.187 64.55,125.347 66.315,125.378C68.195,125.411 69.502,124.212 69.533,122.431L69.607,118.259L70.844,118.28L70.855,117.62" style="fill:rgb(0,55,108);fill-rule:nonzero;"/>
    </g>
    <g transform="matrix(1,0,0,1,0,-108.506)">
        <path d="M84.34,117.627L85.535,117.947L85.705,117.311L82.502,116.452L82.332,117.09L83.543,117.414L82.322,121.971L79.236,115.577L77.182,115.027L77.01,115.664L78.125,115.963L78.334,116.463L76.801,122.182L75.605,121.862L75.447,122.451L78.65,123.31L78.809,122.721L77.598,122.396L78.857,117.696L82.025,124.351L82.504,124.479L84.34,117.627" style="fill:rgb(0,55,108);fill-rule:nonzero;"/>
    </g>
    <g transform="matrix(1,0,0,1,0,-99.715)">
        <path d="M91.674,119.058L90.582,118.477L93.562,112.87L94.654,113.451L94.965,112.868L91.674,111.118L91.363,111.701L92.455,112.281L89.475,117.889L88.383,117.308L88.096,117.847L91.387,119.597L91.674,119.058" style="fill:rgb(0,55,108);fill-rule:nonzero;"/>
    </g>
    <g transform="matrix(1,0,0,1,0,-91.862)">
        <path d="M103.978,111.87L104.531,112.286L104.928,111.759L103.018,110.32L102.621,110.846L103.371,111.413L98.645,114.232L100.012,108.882L100.842,109.506L101.24,108.979L98.684,107.053L98.287,107.581L98.932,108.067L96.994,115.571L97.31,115.809L103.978,111.87" style="fill:rgb(0,55,108);fill-rule:nonzero;"/>
    </g>
    <g transform="matrix(1,0,0,1,0,-74.304)">
        <path d="M108.211,106.369L107.803,105.915L107.152,106.5L105.275,104.416L107.422,102.485L108.834,104.054L108.221,104.606L108.629,105.06L110.334,103.525L109.912,103.082L109.324,103.613L107.912,102.043L109.959,100.201L111.769,102.21L111.131,102.785L111.529,103.226L112.902,101.99L112.494,101.536L112.248,101.757L108.783,97.908L108.328,98.316L109.156,99.236L104.4,103.518L103.572,102.599L103.119,103.007L107.07,107.396L108.211,106.369" style="fill:rgb(0,55,108);fill-rule:nonzero;"/>
    </g>
    <g transform="matrix(1,0,0,1,0,-54.009)">
        <path d="M114.061,97.352L113.836,96.949C113.66,96.63 113.682,96.261 113.906,95.816L115.125,93.386C115.826,94.242 116.861,94.443 117.828,93.907C118.996,93.259 119.201,92.164 118.424,90.765L116.537,87.361L115.961,87.681L116.56,88.763L111.006,91.841L110.406,90.759L109.873,91.055L111.68,94.316L112.213,94.019L111.613,92.937L114.008,91.611L114.4,92.317L112.934,95.148C112.586,95.813 112.592,95.96 112.943,96.595L113.527,97.648L114.061,97.352ZM117.168,89.859L117.729,90.868C118.143,91.618 117.92,92.271 117.113,92.718C116.318,93.158 115.537,93.007 115.152,92.315L114.586,91.29L117.168,89.859" style="fill:rgb(0,55,108);"/>
    </g>
    <g transform="matrix(1,0,0,1,0,-34.044)">
        <path d="M115.484,81.885C115.338,82.609 115.348,83.229 115.541,83.825C115.965,85.128 117.176,85.81 118.352,85.428C119.371,85.097 119.75,84.557 120.066,82.963C120.147,82.572 120.244,82.124 120.348,81.64C120.488,81.005 120.65,80.761 121.059,80.628C121.701,80.419 122.268,80.773 122.508,81.511C122.644,81.935 122.658,82.241 122.527,82.961L121.744,83.216L121.932,83.796L123.815,83.185L123.625,82.605L123.234,82.732C123.336,82.194 123.299,81.704 123.131,81.187C122.723,79.932 121.508,79.234 120.377,79.601C119.453,79.901 119.057,80.551 118.814,82.155C118.578,83.671 118.309,84.228 117.713,84.421C117.102,84.62 116.478,84.198 116.223,83.413C116.049,82.88 116.049,82.396 116.221,81.646L117.037,81.38L116.848,80.8L114.887,81.437L115.076,82.018L115.484,81.885" style="fill:rgb(0,55,108);fill-rule:nonzero;"/>
    </g>
    <g transform="matrix(1,0,0,1,0,-15.404)">
        <path d="M118.555,75.493L118.383,74.267L124.672,73.385L124.844,74.609L125.496,74.517L124.978,70.826L124.324,70.918L124.496,72.142L118.207,73.027L118.035,71.802L117.432,71.886L117.949,75.578L118.555,75.493" style="fill:rgb(0,55,108);fill-rule:nonzero;"/>
    </g>
    <g transform="matrix(1,0,0,1,0,4.82)">
        <path d="M118.691,64.887L118.74,63.486L125.088,63.707L125.004,66.114L124.08,66.081L124.059,66.692L125.971,66.758L125.992,66.149L125.662,66.137L125.875,60.071L126.203,60.082L126.225,59.489L124.313,59.422L124.293,60.016L125.215,60.047L125.131,62.454L118.785,62.233L118.834,60.831L118.223,60.81L118.082,64.866L118.691,64.887" style="fill:rgb(0,55,108);fill-rule:nonzero;"/>
    </g>
    <g transform="matrix(1,0,0,1,0,25.952)">
        <path d="M116.291,56.092L116.463,55.404L124.238,54.215L124.344,53.799L118.066,48.97L118.219,48.361L117.627,48.214L117.068,50.455L117.66,50.603L117.883,49.706L119.439,50.894L118.715,53.807L116.789,54.092L116.965,53.387L116.373,53.239L115.703,55.929L116.291,56.092ZM125.5,56.723C125.949,56.834 126.408,56.558 126.518,56.126C126.629,55.678 126.352,55.218 125.904,55.107C125.473,54.998 125.012,55.275 124.9,55.723C124.793,56.155 125.068,56.614 125.5,56.723ZM126.207,53.89C126.654,54.001 127.115,53.725 127.223,53.293C127.334,52.845 127.059,52.385 126.609,52.274C126.178,52.165 125.719,52.442 125.605,52.89C125.498,53.322 125.775,53.782 126.207,53.89ZM119.996,51.321L122.51,53.24L119.402,53.706L119.996,51.321" style="fill:rgb(0,55,108);"/>
    </g>
    <g transform="matrix(1,0,0,1,0,49.694)">
        <path d="M112.861,40.337L113.453,39.066L119.209,41.75L118.191,43.933L117.355,43.542L117.098,44.095L118.83,44.904L119.09,44.351L118.789,44.211L121.355,38.71L121.654,38.85L121.904,38.311L120.172,37.502L119.92,38.041L120.758,38.431L119.74,40.614L113.984,37.93L114.576,36.66L114.023,36.402L112.309,40.079L112.861,40.337" style="fill:rgb(0,55,108);fill-rule:nonzero;"/>
    </g>
</svg>
